<svg version="1.2" xmlns="http://www.w3.org/2000/svg" viewBox="0 0 1000 1000" width="1000" height="1000">
	<title>3569141-ai</title>
	<style>
		.s0 { fill: #e0e0e0 } 
		.s1 { fill: #f5f5f5 } 
		.s2 { fill: #ffffff } 
		.s3 { fill: none;stroke: #fbfbfb;stroke-width: .5 } 
		.s4 { fill: #e8505b } 
		.s5 { fill: #000000 } 
		.s6 { fill: #fafafa } 
		.s7 { fill: #263238 } 
		.s8 { fill: none;stroke: #4e585d;stroke-width: .4 } 
		.s9 { fill: #ebebeb } 
		.s10 { fill: #ffbe9d } 
		.s11 { fill: #455a64 } 
		.s12 { fill: #eb996e } 
	</style>
	<g id="Background Complete">
		<g id="&lt;Group&gt;">
			<g id="&lt;Group&gt;">
				<g id="&lt;Group&gt;">
					<g id="&lt;Group&gt;">
						<g id="&lt;Group&gt;">
							<g id="&lt;Group&gt;">
								<path id="&lt;Path&gt;" class="s0" d="m258.1 354.1h-161.7v-234.4h161.7z"/>
							</g>
						</g>
					</g>
				</g>
			</g>
			<g id="&lt;Group&gt;">
				<g id="&lt;Group&gt;">
					<g id="&lt;Group&gt;">
						<g id="&lt;Group&gt;">
							<g id="&lt;Group&gt;">
								<path id="&lt;Path&gt;" class="s1" d="m250 354.1h-161.7v-234.4h161.7z"/>
							</g>
						</g>
					</g>
				</g>
			</g>
			<g id="&lt;Group&gt;">
				<g id="&lt;Group&gt;">
					<g id="&lt;Group&gt;">
						<g id="&lt;Group&gt;">
							<g id="&lt;Group&gt;">
								<g id="&lt;Group&gt;">
									<path id="&lt;Path&gt;" class="s2" d="m229.9 328.7h-121.6v-183.7h121.6z"/>
								</g>
							</g>
						</g>
					</g>
				</g>
				<g id="&lt;Group&gt;">
					<g id="&lt;Group&gt;">
						<g id="&lt;Group&gt;">
							<g id="&lt;Group&gt;">
								<g id="&lt;Group&gt;">
									<g id="&lt;Group&gt;">
										<path id="&lt;Path&gt;" class="s0" d="m229.9 328.7q0 0 0-0.9 0-0.9-0.1-2.6 0-3.5 0-10.1c0-8.8-0.1-21.6-0.1-37.8-0.1-32.4-0.1-78.3-0.2-132.3l0.4 0.4c-37.1 0.1-78.3 0.1-121.5 0.1h-0.1l0.5-0.5c0 69.3-0.1 133.2-0.1 183.7l-0.4-0.4c37.1 0.1 67.4 0.2 88.5 0.2 10.6 0.1 18.8 0.1 24.5 0.1q4.2 0 6.4 0.1c1.4 0 2.2 0 2.2 0q0 0-2.2 0-2.1 0-6.3 0.1c-5.6 0-13.8 0-24.4 0.1-21.1 0-51.5 0.1-88.7 0.1h-0.3v-0.3c0-50.5-0.1-114.4-0.1-183.7v-0.4h0.4 0.1c43.2 0 84.4 0 121.5 0h0.4v0.4c-0.1 54.2-0.2 100.1-0.2 132.6 0 16.1-0.1 28.9-0.1 37.7q0 6.5-0.1 10 0 1.6 0 2.5 0 0.9 0 0.9z"/>
									</g>
								</g>
							</g>
						</g>
					</g>
				</g>
			</g>
			<g id="&lt;Group&gt;">
				<g id="&lt;Group&gt;">
					<g id="&lt;Group&gt;">
						<g id="&lt;Group&gt;">
							<g id="&lt;Group&gt;">
								<g id="&lt;Group&gt;">
									<path id="&lt;Path&gt;" class="s3" d=""/>
								</g>
							</g>
						</g>
					</g>
				</g>
			</g>
			<g id="&lt;Group&gt;">
				<g id="&lt;Group&gt;">
					<g id="&lt;Group&gt;">
						<g id="&lt;Group&gt;">
							<g id="&lt;Group&gt;">
								<g id="&lt;Group&gt;">
									<path id="&lt;Path&gt;" class="s0" d="m250.4 119.7c0.1 0-1 1.6-2.8 4.1-1.9 2.6-4.6 6-7.6 9.7-3.1 3.7-5.9 6.9-8 9.3-2.1 2.3-3.5 3.7-3.6 3.6-0.1-0.1 1.1-1.6 3.1-4 2.2-2.7 4.8-5.9 7.8-9.5 2.9-3.6 5.6-6.8 7.8-9.4 2-2.5 3.2-3.9 3.3-3.8z"/>
								</g>
							</g>
						</g>
					</g>
				</g>
			</g>
			<g id="&lt;Group&gt;">
				<g id="&lt;Group&gt;">
					<g id="&lt;Group&gt;">
						<g id="&lt;Group&gt;">
							<g id="&lt;Group&gt;">
								<g id="&lt;Group&gt;">
									<path id="&lt;Path&gt;" class="s2" d="m230.5 328.1c6 9.6 13.2 18.5 21.2 26.5"/>
								</g>
							</g>
						</g>
					</g>
				</g>
				<g id="&lt;Group&gt;">
					<g id="&lt;Group&gt;">
						<g id="&lt;Group&gt;">
							<g id="&lt;Group&gt;">
								<g id="&lt;Group&gt;">
									<g id="&lt;Group&gt;">
										<path id="&lt;Path&gt;" class="s0" d="m251.7 354.6c-0.1 0.1-1.5-1.2-3.7-3.3-2.2-2.2-5-5.4-8-9.1-2.9-3.7-5.4-7.2-7-9.8-1.7-2.6-2.6-4.2-2.5-4.3 0.1-0.1 1.2 1.5 3 4 1.8 2.5 4.3 5.9 7.2 9.6 2.9 3.6 5.7 6.8 7.8 9.1 2 2.3 3.3 3.7 3.2 3.8z"/>
									</g>
								</g>
							</g>
						</g>
					</g>
				</g>
			</g>
			<g id="&lt;Group&gt;">
				<g id="&lt;Group&gt;">
					<g id="&lt;Group&gt;">
						<g id="&lt;Group&gt;">
							<g id="&lt;Group&gt;">
								<g id="&lt;Group&gt;">
									<path id="&lt;Path&gt;" class="s2" d="m88.2 353.9q10.6-13.1 21.2-26.1"/>
								</g>
							</g>
						</g>
					</g>
				</g>
				<g id="&lt;Group&gt;">
					<g id="&lt;Group&gt;">
						<g id="&lt;Group&gt;">
							<g id="&lt;Group&gt;">
								<g id="&lt;Group&gt;">
									<g id="&lt;Group&gt;">
										<path id="&lt;Path&gt;" class="s0" d="m109.4 327.8c0.2 0.1-4.4 6.1-10.2 13.3-5.9 7.2-10.8 12.9-11 12.8-0.2-0.2 4.4-6.1 10.3-13.4 5.8-7.2 10.7-12.9 10.9-12.7z"/>
									</g>
								</g>
							</g>
						</g>
					</g>
				</g>
			</g>
			<g id="&lt;Group&gt;">
				<g id="&lt;Group&gt;">
					<g id="&lt;Group&gt;">
						<g id="&lt;Group&gt;">
							<g id="&lt;Group&gt;">
								<g id="&lt;Group&gt;">
									<path id="&lt;Path&gt;" class="s0" d="m88.3 119.7c0.1-0.2 4.7 5.3 10.2 12.2 5.5 7 9.8 12.7 9.6 12.9-0.2 0.1-4.8-5.4-10.3-12.3-5.4-6.9-9.7-12.7-9.5-12.8z"/>
								</g>
							</g>
						</g>
					</g>
				</g>
			</g>
			<g id="&lt;Group&gt;">
				<g id="&lt;Group&gt;">
					<g id="&lt;Group&gt;">
						<g id="&lt;Group&gt;">
							<g id="&lt;Group&gt;">
								<path id="&lt;Path&gt;" class="s0" d="m192 297.9h-40.7v-115.6h40.7z"/>
							</g>
						</g>
					</g>
				</g>
			</g>
		</g>
		<g id="&lt;Group&gt;">
			<g id="&lt;Group&gt;">
				<g id="&lt;Group&gt;">
					<g id="&lt;Group&gt;">
						<g id="&lt;Group&gt;">
							<g id="&lt;Group&gt;">
								<path id="&lt;Path&gt;" class="s0" d="m741.7 346.2h-161.7v-234.4h161.7z"/>
							</g>
						</g>
					</g>
				</g>
			</g>
			<g id="&lt;Group&gt;">
				<g id="&lt;Group&gt;">
					<g id="&lt;Group&gt;">
						<g id="&lt;Group&gt;">
							<g id="&lt;Group&gt;">
								<path id="&lt;Path&gt;" class="s1" d="m733.6 346.2h-161.7v-234.4h161.7z"/>
							</g>
						</g>
					</g>
				</g>
			</g>
			<g id="&lt;Group&gt;">
				<g id="&lt;Group&gt;">
					<g id="&lt;Group&gt;">
						<g id="&lt;Group&gt;">
							<g id="&lt;Group&gt;">
								<g id="&lt;Group&gt;">
									<path id="&lt;Path&gt;" class="s2" d="m713.5 320.8h-121.6v-183.6h121.6z"/>
								</g>
							</g>
						</g>
					</g>
				</g>
				<g id="&lt;Group&gt;">
					<g id="&lt;Group&gt;">
						<g id="&lt;Group&gt;">
							<g id="&lt;Group&gt;">
								<g id="&lt;Group&gt;">
									<g id="&lt;Group&gt;">
										<path id="&lt;Path&gt;" class="s0" d="m713.5 320.8q0 0 0-0.9 0-0.9-0.1-2.6 0-3.4 0-10c0-8.8-0.1-21.7-0.1-37.9-0.1-32.3-0.1-78.2-0.2-132.2l0.4 0.4c-37.1 0-78.3 0-121.5 0h-0.1l0.5-0.4c0 69.3-0.1 133.2-0.1 183.6l-0.4-0.3c37.1 0.1 67.4 0.1 88.5 0.2 10.6 0 18.8 0 24.5 0.1q4.2 0 6.4 0c1.4 0 2.2 0 2.2 0q0 0.1-2.1 0.1-2.2 0-6.4 0c-5.6 0-13.8 0.1-24.4 0.1-21.1 0.1-51.5 0.1-88.7 0.2h-0.3v-0.4c0-50.4-0.1-114.3-0.1-183.6v-0.4h0.4 0.1c43.2 0 84.4 0 121.5 0h0.4v0.4c-0.1 54.1-0.2 100.1-0.2 132.5 0 16.2-0.1 29-0.1 37.7q0 6.6-0.1 10 0 1.7 0 2.6 0 0.8 0 0.8z"/>
									</g>
								</g>
							</g>
						</g>
					</g>
				</g>
			</g>
			<g id="&lt;Group&gt;">
				<g id="&lt;Group&gt;">
					<g id="&lt;Group&gt;">
						<g id="&lt;Group&gt;">
							<g id="&lt;Group&gt;">
								<g id="&lt;Group&gt;">
									<path id="&lt;Path&gt;" class="s3" d=""/>
								</g>
							</g>
						</g>
					</g>
				</g>
			</g>
			<g id="&lt;Group&gt;">
				<g id="&lt;Group&gt;">
					<g id="&lt;Group&gt;">
						<g id="&lt;Group&gt;">
							<g id="&lt;Group&gt;">
								<g id="&lt;Group&gt;">
									<path id="&lt;Path&gt;" class="s0" d="m734 111.8c0.1 0.1-1 1.7-2.8 4.2-1.9 2.5-4.6 5.9-7.6 9.6-3.1 3.7-5.9 7-8 9.3-2.1 2.3-3.5 3.7-3.6 3.6-0.1 0 1.1-1.6 3.1-4 2.2-2.6 4.8-5.9 7.8-9.4 2.9-3.6 5.6-6.9 7.8-9.5 2-2.4 3.2-3.9 3.3-3.8z"/>
								</g>
							</g>
						</g>
					</g>
				</g>
			</g>
			<g id="&lt;Group&gt;">
				<g id="&lt;Group&gt;">
					<g id="&lt;Group&gt;">
						<g id="&lt;Group&gt;">
							<g id="&lt;Group&gt;">
								<g id="&lt;Group&gt;">
									<path id="&lt;Path&gt;" class="s2" d="m714.1 320.3c6.1 9.6 13.2 18.5 21.2 26.5"/>
								</g>
							</g>
						</g>
					</g>
				</g>
				<g id="&lt;Group&gt;">
					<g id="&lt;Group&gt;">
						<g id="&lt;Group&gt;">
							<g id="&lt;Group&gt;">
								<g id="&lt;Group&gt;">
									<g id="&lt;Group&gt;">
										<path id="&lt;Path&gt;" class="s0" d="m735.3 346.8c-0.1 0-1.5-1.2-3.7-3.4-2.2-2.2-5-5.3-8-9-2.9-3.7-5.4-7.2-7-9.8-1.7-2.6-2.6-4.3-2.5-4.3 0.1-0.1 1.2 1.4 3 3.9 1.8 2.5 4.3 6 7.2 9.6 2.9 3.7 5.7 6.9 7.8 9.2 2 2.3 3.3 3.7 3.2 3.8z"/>
									</g>
								</g>
							</g>
						</g>
					</g>
				</g>
			</g>
			<g id="&lt;Group&gt;">
				<g id="&lt;Group&gt;">
					<g id="&lt;Group&gt;">
						<g id="&lt;Group&gt;">
							<g id="&lt;Group&gt;">
								<g id="&lt;Group&gt;">
									<path id="&lt;Path&gt;" class="s2" d="m571.8 346q10.6-13 21.2-26.1"/>
								</g>
							</g>
						</g>
					</g>
				</g>
				<g id="&lt;Group&gt;">
					<g id="&lt;Group&gt;">
						<g id="&lt;Group&gt;">
							<g id="&lt;Group&gt;">
								<g id="&lt;Group&gt;">
									<g id="&lt;Group&gt;">
										<path id="&lt;Path&gt;" class="s0" d="m593 319.9c0.2 0.2-4.4 6.1-10.2 13.4-5.9 7.2-10.8 12.9-11 12.7-0.2-0.1 4.4-6.1 10.3-13.3 5.8-7.2 10.7-12.9 10.9-12.8z"/>
									</g>
								</g>
							</g>
						</g>
					</g>
				</g>
			</g>
			<g id="&lt;Group&gt;">
				<g id="&lt;Group&gt;">
					<g id="&lt;Group&gt;">
						<g id="&lt;Group&gt;">
							<g id="&lt;Group&gt;">
								<g id="&lt;Group&gt;">
									<path id="&lt;Path&gt;" class="s0" d="m571.9 111.8c0.1-0.1 4.8 5.4 10.2 12.3 5.5 6.9 9.8 12.7 9.6 12.8-0.2 0.2-4.8-5.3-10.3-12.3-5.4-6.9-9.7-12.6-9.5-12.8z"/>
								</g>
							</g>
						</g>
					</g>
				</g>
			</g>
			<g id="&lt;Group&gt;">
				<g id="&lt;Group&gt;">
					<g id="&lt;Group&gt;">
						<g id="&lt;Group&gt;">
							<g id="&lt;Group&gt;">
								<path id="&lt;Path&gt;" class="s0" d="m675.6 290h-40.7v-115.5h40.7z"/>
							</g>
						</g>
					</g>
				</g>
			</g>
		</g>
		<g id="&lt;Group&gt;">
			<g id="&lt;Group&gt;">
				<g id="&lt;Group&gt;">
					<g id="&lt;Group&gt;">
						<path id="&lt;Path&gt;" class="s0" d="m117.5 430.7c0-0.3 1.1-0.5 2.5-0.5 1.4 0 2.5 0.2 2.5 0.5 0 0.3-1.1 0.5-2.5 0.5-1.4 0-2.5-0.2-2.5-0.5z"/>
					</g>
				</g>
			</g>
			<g id="&lt;Group&gt;">
				<g id="&lt;Group&gt;">
					<g id="&lt;Group&gt;">
						<path id="&lt;Path&gt;" class="s0" d="m98 430.7c0-0.3 2.2-0.5 4.9-0.5 2.7 0 4.9 0.2 4.9 0.5 0 0.3-2.2 0.5-4.9 0.5-2.7 0-4.9-0.2-4.9-0.5z"/>
					</g>
				</g>
			</g>
			<g id="&lt;Group&gt;">
				<g id="&lt;Group&gt;">
					<g id="&lt;Group&gt;">
						<path id="&lt;Path&gt;" class="s0" d="m78.5 430.7c0-0.3 2.2-0.5 4.9-0.5 2.7 0 4.9 0.2 4.9 0.5 0 0.3-2.2 0.5-4.9 0.5-2.7 0-4.9-0.2-4.9-0.5z"/>
					</g>
				</g>
			</g>
			<g id="&lt;Group&gt;">
				<g id="&lt;Group&gt;">
					<g id="&lt;Group&gt;">
						<path id="&lt;Path&gt;" class="s0" d="m63.8 435.7c-0.3 0-0.6-2.2-0.6-5 1.1-1.1 0.3-0.3 0.6-0.5h0.1 0.1 0.3 0.5q0.4 0 0.9 0 0.9 0.1 1.6 0.1c0.9 0.1 1.5 0.2 1.5 0.4 0 0.1-0.6 0.3-1.5 0.4q-0.7 0-1.6 0.1-0.5 0-0.9 0h-0.5-0.3-0.1-0.1c0.2-0.2-0.6 0.5 0.5-0.5 0 2.8-0.3 5-0.5 5z"/>
					</g>
				</g>
			</g>
			<g id="&lt;Group&gt;">
				<g id="&lt;Group&gt;">
					<g id="&lt;Group&gt;">
						<path id="&lt;Path&gt;" class="s0" d="m63.8 455.7c-0.3 0-0.6-2.3-0.6-5 0-2.8 0.3-5 0.6-5 0.2 0 0.5 2.2 0.5 5 0 2.7-0.3 5-0.5 5z"/>
					</g>
				</g>
			</g>
			<g id="&lt;Group&gt;">
				<g id="&lt;Group&gt;">
					<g id="&lt;Group&gt;">
						<path id="&lt;Path&gt;" class="s0" d="m63.8 475.6c-0.3 0-0.6-2.2-0.6-5 0-2.7 0.3-5 0.6-5 0.2 0 0.5 2.3 0.5 5 0 2.8-0.3 5-0.5 5z"/>
					</g>
				</g>
			</g>
			<g id="&lt;Group&gt;">
				<g id="&lt;Group&gt;">
					<g id="&lt;Group&gt;">
						<path id="&lt;Path&gt;" class="s0" d="m63.8 495.6c-0.3 0-0.6-2.3-0.6-5 0-2.8 0.3-5 0.6-5 0.2 0 0.5 2.2 0.5 5 0 2.7-0.3 5-0.5 5z"/>
					</g>
				</g>
			</g>
			<g id="&lt;Group&gt;">
				<g id="&lt;Group&gt;">
					<g id="&lt;Group&gt;">
						<path id="&lt;Path&gt;" class="s0" d="m63.8 515.5c-0.3 0-0.6-2.2-0.6-5 0-2.7 0.3-4.9 0.6-4.9 0.2 0 0.5 2.2 0.5 4.9 0 2.8-0.3 5-0.5 5z"/>
					</g>
				</g>
			</g>
			<g id="&lt;Group&gt;">
				<g id="&lt;Group&gt;">
					<g id="&lt;Group&gt;">
						<path id="&lt;Path&gt;" class="s0" d="m63.8 535.5c-0.3 0-0.6-2.2-0.6-5 0-2.7 0.3-5 0.6-5 0.2 0 0.5 2.3 0.5 5 0 2.8-0.3 5-0.5 5z"/>
					</g>
				</g>
			</g>
			<g id="&lt;Group&gt;">
				<g id="&lt;Group&gt;">
					<g id="&lt;Group&gt;">
						<path id="&lt;Path&gt;" class="s0" d="m63.8 555.5c-0.3 0-0.6-2.3-0.6-5 0-2.8 0.3-5 0.6-5 0.2 0 0.5 2.2 0.5 5 0 2.7-0.3 5-0.5 5z"/>
					</g>
				</g>
			</g>
			<g id="&lt;Group&gt;">
				<g id="&lt;Group&gt;">
					<g id="&lt;Group&gt;">
						<path id="&lt;Path&gt;" class="s0" d="m63.8 575.4c-0.3 0-0.6-2.2-0.6-5 0-2.7 0.3-5 0.6-5 0.2 0 0.5 2.3 0.5 5 0 2.8-0.3 5-0.5 5z"/>
					</g>
				</g>
			</g>
			<g id="&lt;Group&gt;">
				<g id="&lt;Group&gt;">
					<g id="&lt;Group&gt;">
						<path id="&lt;Path&gt;" class="s0" d="m63.8 595.4c-0.3 0-0.6-2.3-0.6-5 0-2.8 0.3-5 0.6-5 0.2 0 0.5 2.2 0.5 5 0 2.7-0.3 5-0.5 5z"/>
					</g>
				</g>
			</g>
			<g id="&lt;Group&gt;">
				<g id="&lt;Group&gt;">
					<g id="&lt;Group&gt;">
						<path id="&lt;Path&gt;" class="s0" d="m63.8 615.3c-0.3 0-0.6-2.2-0.6-4.9 0-2.8 0.3-5 0.6-5 0.2 0 0.5 2.2 0.5 5 0 2.7-0.3 4.9-0.5 4.9z"/>
					</g>
				</g>
			</g>
			<g id="&lt;Group&gt;">
				<g id="&lt;Group&gt;">
					<g id="&lt;Group&gt;">
						<path id="&lt;Path&gt;" class="s0" d="m63.8 635.3c-0.3 0-0.6-2.2-0.6-5 0-2.7 0.3-5 0.6-5 0.2 0 0.5 2.3 0.5 5 0 2.8-0.3 5-0.5 5z"/>
					</g>
				</g>
			</g>
			<g id="&lt;Group&gt;">
				<g id="&lt;Group&gt;">
					<g id="&lt;Group&gt;">
						<path id="&lt;Path&gt;" class="s0" d="m63.8 655.3c-0.3 0-0.6-2.3-0.6-5 0-2.8 0.3-5 0.6-5 0.2 0 0.5 2.2 0.5 5 0 2.7-0.3 5-0.5 5z"/>
					</g>
				</g>
			</g>
			<g id="&lt;Group&gt;">
				<g id="&lt;Group&gt;">
					<g id="&lt;Group&gt;">
						<path id="&lt;Path&gt;" class="s0" d="m63.8 675.2c-0.3 0-0.6-2.2-0.6-5 0-2.7 0.3-5 0.6-5 0.2 0 0.5 2.3 0.5 5 0 2.8-0.3 5-0.5 5z"/>
					</g>
				</g>
			</g>
			<g id="&lt;Group&gt;">
				<g id="&lt;Group&gt;">
					<g id="&lt;Group&gt;">
						<path id="&lt;Path&gt;" class="s0" d="m63.8 695.2c-0.3 0-0.6-2.2-0.6-5 0-2.8 0.3-5 0.6-5 0.2 0 0.5 2.2 0.5 5 0 2.8-0.3 5-0.5 5z"/>
					</g>
				</g>
			</g>
			<g id="&lt;Group&gt;">
				<g id="&lt;Group&gt;">
					<g id="&lt;Group&gt;">
						<path id="&lt;Path&gt;" class="s0" d="m63.8 715.2c-0.3 0-0.6-2.3-0.6-5 0-2.8 0.3-5 0.6-5 0.2 0 0.5 2.2 0.5 5 0 2.7-0.3 5-0.5 5z"/>
					</g>
				</g>
			</g>
			<g id="&lt;Group&gt;">
				<g id="&lt;Group&gt;">
					<g id="&lt;Group&gt;">
						<path id="&lt;Path&gt;" class="s0" d="m63.8 735.1c-0.3 0-0.6-2.2-0.6-5 0-2.7 0.3-5 0.6-5 0.2 0 0.5 2.3 0.5 5 0 2.8-0.3 5-0.5 5z"/>
					</g>
				</g>
			</g>
			<g id="&lt;Group&gt;">
				<g id="&lt;Group&gt;">
					<g id="&lt;Group&gt;">
						<path id="&lt;Path&gt;" class="s0" d="m63.8 755.1c-0.3 0-0.6-2.3-0.6-5 0-2.8 0.3-5 0.6-5 0.2 0 0.5 2.2 0.5 5 0 2.7-0.3 5-0.5 5z"/>
					</g>
				</g>
			</g>
			<g id="&lt;Group&gt;">
				<g id="&lt;Group&gt;">
					<g id="&lt;Group&gt;">
						<path id="&lt;Path&gt;" class="s0" d="m68.8 770.1c0 0.2-2.3 0.5-5 0.5-1.1-1.1-0.3-0.3-0.6-0.5v-0.1-0.1-0.1-0.3l0.1-0.5q0-0.4 0-0.9 0-0.9 0.1-1.6c0.1-0.9 0.2-1.4 0.4-1.4 0.1 0 0.2 0.5 0.3 1.4q0.1 0.7 0.1 1.6 0.1 0.5 0.1 0.9v0.5 0.3 0.1 0.1 0.1c-0.2-0.3 0.5 0.5-0.5-0.6 2.7 0 5 0.3 5 0.6z"/>
					</g>
				</g>
			</g>
			<g id="&lt;Group&gt;">
				<g id="&lt;Group&gt;">
					<g id="&lt;Group&gt;">
						<path id="&lt;Path&gt;" class="s0" d="m89.8 770.1c0 0.2-2.4 0.5-5.3 0.5-2.9 0-5.2-0.3-5.2-0.5 0-0.3 2.3-0.6 5.2-0.6 2.9 0 5.3 0.3 5.3 0.6z"/>
					</g>
				</g>
			</g>
			<g id="&lt;Group&gt;">
				<g id="&lt;Group&gt;">
					<g id="&lt;Group&gt;">
						<path id="&lt;Path&gt;" class="s0" d="m110.7 770.1c0 0.2-2.3 0.5-5.2 0.5-2.9 0-5.3-0.3-5.3-0.5 0-0.3 2.4-0.6 5.3-0.6 2.9 0 5.2 0.3 5.2 0.6z"/>
					</g>
				</g>
			</g>
			<g id="&lt;Group&gt;">
				<g id="&lt;Group&gt;">
					<g id="&lt;Group&gt;">
						<path id="&lt;Path&gt;" class="s0" d="m131.7 770.1c0 0.2-2.3 0.5-5.2 0.5-2.9 0-5.3-0.3-5.3-0.5 0-0.3 2.4-0.6 5.3-0.6 2.9 0 5.2 0.3 5.2 0.6z"/>
					</g>
				</g>
			</g>
			<g id="&lt;Group&gt;">
				<g id="&lt;Group&gt;">
					<g id="&lt;Group&gt;">
						<path id="&lt;Path&gt;" class="s0" d="m147.2 770.1c0 0.2-1.1 0.5-2.5 0.5-1.3 0-2.5-0.3-2.5-0.5 0-0.3 1.2-0.6 2.5-0.6 1.4 0 2.5 0.3 2.5 0.6z"/>
					</g>
				</g>
			</g>
		</g>
		<g id="&lt;Group&gt;">
			<g id="&lt;Group&gt;">
				<g id="&lt;Group&gt;">
					<g id="&lt;Group&gt;">
						<g id="&lt;Group&gt;">
							<g id="&lt;Group&gt;">
								<path id="&lt;Path&gt;" class="s0" d="m511.8 117.2v129.6h-186.1l-6.7-128.7z"/>
							</g>
						</g>
					</g>
				</g>
			</g>
			<g id="&lt;Group&gt;">
				<g id="&lt;Group&gt;">
					<g id="&lt;Group&gt;">
						<g id="&lt;Group&gt;">
							<g id="&lt;Group&gt;">
								<path id="&lt;Path&gt;" class="s2" d="m505.1 118.1v128.5h-186.1v-128.5z"/>
							</g>
						</g>
					</g>
				</g>
				<g id="&lt;Group&gt;">
					<g id="&lt;Group&gt;">
						<g id="&lt;Group&gt;">
							<g id="&lt;Group&gt;">
								<path id="&lt;Compound Path&gt;" fill-rule="evenodd" class="s0" d="m506 247.4h-187.9v-130.2h187.9zm-186.2-1.7h184.4v-126.7h-184.4z"/>
							</g>
						</g>
					</g>
				</g>
			</g>
			<g id="&lt;Group&gt;">
				<g id="&lt;Group&gt;">
					<g id="&lt;Group&gt;">
						<g id="&lt;Group&gt;">
							<g id="&lt;Group&gt;">
								<g id="&lt;Group&gt;">
									<path id="&lt;Path&gt;" class="s2" d="m485 134.1v96.5h-145.9v-96.5z"/>
								</g>
							</g>
						</g>
					</g>
				</g>
				<g id="&lt;Group&gt;">
					<g id="&lt;Group&gt;">
						<g id="&lt;Group&gt;">
							<g id="&lt;Group&gt;">
								<g id="&lt;Group&gt;">
									<g id="&lt;Group&gt;">
										<path id="&lt;Path&gt;" class="s0" d="m485 134.1q0 0-0.8 0-0.7 0-2 0-2.8 0-8 0.1c-7 0-17.2 0-30.1 0.1-25.7 0-62.1 0.1-105 0.2l0.4-0.4c0.1 29.5 0.1 62.1 0.1 96.5l-0.5-0.5c55 0.1 105.8 0.1 145.9 0.1l-0.4 0.4c0.1-29.4 0.1-53.5 0.2-70.2 0-8.4 0.1-15 0.1-19.4q0-3.4 0-5.1c0-1.2 0.1-1.8 0.1-1.8q0 0 0 1.7 0 1.7 0 5c0.1 4.5 0.1 11 0.1 19.3 0.1 16.9 0.2 41 0.2 70.5v0.4h-0.3c-40.1 0-90.9 0-145.9 0.1h-0.4v-0.5c0-34.4 0-67 0-96.5v-0.4h0.4c43 0 79.5 0.1 105.3 0.2 12.8 0 23 0.1 29.9 0.1q5.2 0 8 0 1.3 0 2 0.1 0.7 0 0.7 0z"/>
									</g>
								</g>
							</g>
						</g>
					</g>
				</g>
			</g>
			<g id="&lt;Group&gt;">
				<g id="&lt;Group&gt;">
					<g id="&lt;Group&gt;">
						<g id="&lt;Group&gt;">
							<g id="&lt;Group&gt;">
								<g id="&lt;Group&gt;">
									<path id="&lt;Path&gt;" class="s0" d="m319 117.8c0-0.1 1.3 0.7 3.2 2 1.9 1.4 4.5 3.4 7.3 5.6 2.8 2.2 5.2 4.4 7 6 1.7 1.5 2.7 2.6 2.6 2.7-0.1 0.2-4.6-3.5-10.2-8-5.6-4.4-10.1-8.1-9.9-8.3z"/>
								</g>
							</g>
						</g>
					</g>
				</g>
			</g>
			<g id="&lt;Group&gt;">
				<g id="&lt;Group&gt;">
					<g id="&lt;Group&gt;">
						<g id="&lt;Group&gt;">
							<g id="&lt;Group&gt;">
								<g id="&lt;Group&gt;">
									<path id="&lt;Path&gt;" class="s0" d="m505.1 118.1c0.2 0.2-4.2 4-9.8 8.4-5.5 4.4-10.2 7.8-10.3 7.6-0.2-0.2 4.2-4 9.8-8.4 5.5-4.4 10.2-7.8 10.3-7.6z"/>
								</g>
							</g>
						</g>
					</g>
				</g>
			</g>
			<g id="&lt;Group&gt;">
				<g id="&lt;Group&gt;">
					<g id="&lt;Group&gt;">
						<g id="&lt;Group&gt;">
							<g id="&lt;Group&gt;">
								<g id="&lt;Group&gt;">
									<path id="&lt;Path&gt;" class="s2" d="m505 246.6q-10.4-8.4-20.8-16.8"/>
								</g>
							</g>
						</g>
					</g>
				</g>
				<g id="&lt;Group&gt;">
					<g id="&lt;Group&gt;">
						<g id="&lt;Group&gt;">
							<g id="&lt;Group&gt;">
								<g id="&lt;Group&gt;">
									<g id="&lt;Group&gt;">
										<path id="&lt;Path&gt;" class="s0" d="m484.2 229.8c0.2-0.2 5 3.4 10.7 8 5.7 4.7 10.2 8.6 10.1 8.8-0.2 0.2-5-3.4-10.7-8.1-5.7-4.6-10.2-8.5-10.1-8.7z"/>
									</g>
								</g>
							</g>
						</g>
					</g>
				</g>
			</g>
			<g id="&lt;Group&gt;">
				<g id="&lt;Group&gt;">
					<g id="&lt;Group&gt;">
						<g id="&lt;Group&gt;">
							<g id="&lt;Group&gt;">
								<g id="&lt;Group&gt;">
									<path id="&lt;Path&gt;" class="s0" d="m319 246.6c-0.2-0.2 4.1-3.9 9.7-8.3 5.5-4.3 10.1-7.7 10.2-7.5 0.2 0.2-4.2 3.9-9.7 8.2-5.5 4.4-10.1 7.8-10.2 7.6z"/>
								</g>
							</g>
						</g>
					</g>
				</g>
			</g>
			<g id="&lt;Group&gt;">
				<g id="&lt;Group&gt;">
					<g id="&lt;Group&gt;">
						<g id="&lt;Group&gt;">
							<g id="&lt;Group&gt;">
								<path id="&lt;Path&gt;" class="s0" d="m460.5 164.2v32.3h-91.8v-32.3z"/>
							</g>
						</g>
					</g>
				</g>
			</g>
		</g>
	</g>
	<g id="Printer">
		<g id="&lt;Group&gt;">
			<g id="&lt;Group&gt;">
				<g id="&lt;Group&gt;">
					<g id="&lt;Group&gt;">
						<path id="&lt;Path&gt;" class="s4" d="m708.1 398.4v157.9h-408v-157.9c0-3.8 3.1-7 7-7h394c3.8 0 7 3.2 7 7z"/>
					</g>
				</g>
				<g id="&lt;Group&gt;" style="opacity: .3">
					<g id="&lt;Group&gt;">
						<path id="&lt;Path&gt;" class="s5" d="m708.1 398.4v157.9h-408v-157.9c0-3.8 3.1-7 7-7h394c3.8 0 7 3.2 7 7z"/>
					</g>
				</g>
			</g>
			<g id="&lt;Group&gt;">
				<g id="&lt;Group&gt;">
					<g id="&lt;Group&gt;">
						<path id="&lt;Path&gt;" class="s2" d="m679 722.5h-348.1v-444.4h348.1z"/>
					</g>
				</g>
				<g id="&lt;Group&gt;">
					<g id="&lt;Group&gt;">
						<path id="&lt;Path&gt;" class="s1" d="m678.8 361.7h-348.1v-85.2h348.1z"/>
					</g>
				</g>
				<g id="&lt;Group&gt;">
					<g id="&lt;Group&gt;">
						<path id="&lt;Path&gt;" class="s4" d="m480.8 370.3h-132.7v-21.4h132.7z"/>
					</g>
				</g>
				<g id="&lt;Group&gt;">
					<g id="&lt;Group&gt;">
						<path id="&lt;Path&gt;" class="s6" d="m659.1 486.6h-311v-30.8h311z"/>
					</g>
				</g>
				<g id="&lt;Group&gt;">
					<g id="&lt;Group&gt;">
						<path id="&lt;Path&gt;" class="s0" d="m659.1 517.4h-311v-30.8h311z"/>
					</g>
				</g>
				<g id="&lt;Group&gt;">
					<g id="&lt;Group&gt;">
						<path id="&lt;Compound Path&gt;" class="s2" d="m362.3 356.1h0.6v5.6h-0.6z"/>
					</g>
					<g id="&lt;Group&gt;">
						<path id="&lt;Compound Path&gt;" class="s2" d="m368.5 359.3v2.4h-0.5v-2.4c0-0.9-0.5-1.3-1.3-1.3-0.9 0-1.5 0.6-1.5 1.5v2.2h-0.6v-4.2h0.6v0.8c0.3-0.5 0.9-0.8 1.6-0.8 1 0 1.7 0.6 1.7 1.8z"/>
					</g>
					<g id="&lt;Group&gt;">
						<path id="&lt;Compound Path&gt;" class="s2" d="m373.6 357.5l-1.9 4.2h-0.6l-1.9-4.2h0.6l1.6 3.6 1.6-3.6z"/>
					</g>
					<g id="&lt;Group&gt;">
						<path id="&lt;Compound Path&gt;" fill-rule="evenodd" class="s2" d="m373.8 359.6c0-1.2 1-2.1 2.2-2.1 1.2 0 2.1 0.9 2.1 2.1 0 1.3-0.9 2.2-2.1 2.2-1.2 0-2.2-0.9-2.2-2.2zm3.8 0c0-1-0.7-1.6-1.6-1.6-0.9 0-1.6 0.6-1.6 1.6 0 1 0.7 1.7 1.6 1.7 0.9 0 1.6-0.7 1.6-1.7z"/>
					</g>
					<g id="&lt;Group&gt;">
						<path id="&lt;Compound Path&gt;" class="s2" d="m379.2 356.2c0-0.3 0.2-0.4 0.4-0.4 0.2 0 0.4 0.1 0.4 0.4 0 0.2-0.2 0.4-0.4 0.4-0.2 0-0.4-0.2-0.4-0.4zm0.1 1.3h0.6v4.2h-0.6z"/>
					</g>
					<g id="&lt;Group&gt;">
						<path id="&lt;Compound Path&gt;" class="s2" d="m381.1 359.6c0-1.2 0.9-2.1 2.1-2.1 0.8 0 1.4 0.3 1.7 0.8l-0.4 0.3c-0.3-0.4-0.8-0.6-1.3-0.6-0.9 0-1.6 0.6-1.6 1.6 0 1 0.7 1.7 1.6 1.7 0.5 0 1-0.2 1.3-0.6l0.4 0.2c-0.3 0.6-0.9 0.9-1.7 0.9-1.2 0-2.1-0.9-2.1-2.2z"/>
					</g>
					<g id="&lt;Group&gt;">
						<path id="&lt;Compound Path&gt;" fill-rule="evenodd" class="s2" d="m389.6 359.8h-3.5c0.1 0.9 0.7 1.5 1.7 1.5 0.5 0 0.9-0.2 1.3-0.6l0.3 0.4c-0.4 0.4-1 0.7-1.7 0.7-1.3 0-2.2-0.9-2.2-2.2 0-1.2 0.9-2.1 2.1-2.1 1.2 0 2 0.9 2 2.1q0 0.1 0 0.2zm-3.5-0.4h3c-0.1-0.9-0.7-1.4-1.5-1.4-0.8 0-1.4 0.5-1.5 1.4z"/>
					</g>
					<g id="&lt;Group&gt;">
						<path id="&lt;Compound Path&gt;" fill-rule="evenodd" class="s2" d="m398.4 358.1l-0.2 1.7h1.2v0.4h-1.2l-0.2 1.5h-0.5l0.2-1.5h-1.6l-0.2 1.5h-0.5l0.2-1.5h-1.1v-0.4h1.2l0.2-1.7h-1.2v-0.5h1.2l0.2-1.5h0.5l-0.2 1.5h1.6l0.2-1.5h0.5l-0.2 1.5h1.1v0.5zm-0.4 0h-1.7l-0.2 1.7h1.7z"/>
					</g>
					<g id="&lt;Group&gt;">
						<path id="&lt;Compound Path&gt;" class="s2" d="m404 360.1c0 1-0.7 1.7-2 1.7-0.9 0-1.6-0.3-2.1-0.7l0.3-0.5c0.4 0.4 1 0.7 1.8 0.7 0.9 0 1.4-0.5 1.4-1.2 0-0.7-0.5-1.1-1.5-1.1h-0.4v-0.4l1.5-2h-2.8v-0.5h3.6v0.4l-1.6 2c1.2 0.1 1.8 0.7 1.8 1.6z"/>
					</g>
					<g id="&lt;Group&gt;">
						<path id="&lt;Compound Path&gt;" class="s2" d="m409.6 360.3h-1.1v1.4h-0.6v-1.4h-3.2v-0.5l3-3.7h0.7l-2.9 3.6h2.4v-1.3h0.6v1.3h1.1z"/>
					</g>
					<g id="&lt;Group&gt;">
						<path id="&lt;Compound Path&gt;" class="s2" d="m413.9 360.1c0 0.9-0.6 1.7-2 1.7-0.8 0-1.6-0.3-2-0.7l0.3-0.5c0.3 0.4 1 0.7 1.7 0.7 0.9 0 1.5-0.5 1.5-1.2 0-0.7-0.5-1.2-1.9-1.2h-1.2l0.3-2.8h3v0.5h-2.5l-0.2 1.8h0.7c1.7 0 2.3 0.7 2.3 1.7z"/>
					</g>
					<g id="&lt;Group&gt;">
						<path id="&lt;Compound Path&gt;" fill-rule="evenodd" class="s2" d="m418.9 360.1c0 1-0.8 1.7-1.9 1.7-1.5 0-2.3-1-2.3-2.8 0-1.9 1-2.9 2.6-2.9 0.5 0 0.9 0 1.3 0.3l-0.2 0.4c-0.3-0.2-0.7-0.2-1.1-0.2-1.3 0-2 0.7-2 2.3q0 0.2 0 0.4c0.3-0.6 0.9-0.9 1.7-0.9 1.1 0 1.9 0.6 1.9 1.7zm-0.6 0c0-0.8-0.5-1.2-1.4-1.2-0.8 0-1.4 0.5-1.4 1.2 0 0.6 0.5 1.2 1.5 1.2 0.8 0 1.3-0.5 1.3-1.2z"/>
					</g>
					<g id="&lt;Group&gt;">
						<path id="&lt;Compound Path&gt;" class="s2" d="m423.4 361.2v0.5h-3.9v-0.4l2.3-2.3c0.7-0.6 0.8-1 0.8-1.4 0-0.6-0.5-1-1.3-1q-1 0-1.6 0.6l-0.4-0.3c0.5-0.6 1.2-0.8 2-0.8 1.2 0 1.9 0.5 1.9 1.5 0 0.5-0.2 1-0.9 1.7l-2 1.9z"/>
					</g>
				</g>
				<g id="&lt;Group&gt;">
					<g id="&lt;Group&gt;">
						<path id="&lt;Compound Path&gt;" class="s7" d="m542.5 311.1h3.3v18.1h-3.3z"/>
					</g>
					<g id="&lt;Group&gt;">
						<path id="&lt;Compound Path&gt;" class="s7" d="m566.8 311.1v18.1h-2.7l-10-12.3v12.3h-3.4v-18.1h2.8l10 12.3v-12.3z"/>
					</g>
					<g id="&lt;Group&gt;">
						<path id="&lt;Compound Path&gt;" class="s7" d="m588.1 311.1l-7.9 18.1h-3.3l-7.9-18.1h3.7l6 14 6.1-14z"/>
					</g>
					<g id="&lt;Group&gt;">
						<path id="&lt;Compound Path&gt;" fill-rule="evenodd" class="s7" d="m588.6 320.2c0-5.4 4.1-9.4 9.7-9.4 5.7 0 9.8 4 9.8 9.4 0 5.3-4.1 9.3-9.8 9.3-5.6 0-9.7-4-9.7-9.3zm16.1 0c0-3.7-2.7-6.4-6.4-6.4-3.6 0-6.3 2.7-6.3 6.4 0 3.7 2.7 6.3 6.3 6.3 3.7 0 6.4-2.6 6.4-6.3z"/>
					</g>
					<g id="&lt;Group&gt;">
						<path id="&lt;Compound Path&gt;" class="s7" d="m611.7 311.1h3.3v18.1h-3.3z"/>
					</g>
					<g id="&lt;Group&gt;">
						<path id="&lt;Compound Path&gt;" class="s7" d="m618.6 320.2c0-5.5 4.2-9.4 9.7-9.4 3 0 5.5 1.1 7.2 3.1l-2.2 2q-2-2.1-4.8-2.1c-3.8 0-6.5 2.6-6.5 6.4 0 3.7 2.7 6.3 6.5 6.3 1.9 0 3.5-0.7 4.8-2.1l2.2 2c-1.7 2-4.2 3.1-7.2 3.1-5.5 0-9.7-3.9-9.7-9.3z"/>
					</g>
					<g id="&lt;Group&gt;">
						<path id="&lt;Compound Path&gt;" class="s7" d="m652.3 326.4v2.8h-13.5v-18.1h13.2v2.8h-9.9v4.7h8.8v2.8h-8.8v5z"/>
					</g>
				</g>
				<g id="&lt;Group&gt;">
					<g id="&lt;Group&gt;">
						<g id="&lt;Group&gt;">
							<g id="&lt;Group&gt;">
								<path id="&lt;Path&gt;" class="s7" d="m607.3 387.1c0 0.3-2.4 0.5-5.4 0.5-3 0-5.5-0.2-5.5-0.5 0-0.3 2.5-0.5 5.5-0.5 3 0 5.4 0.2 5.4 0.5z"/>
							</g>
						</g>
					</g>
					<g id="&lt;Group&gt;">
						<g id="&lt;Group&gt;">
							<g id="&lt;Group&gt;">
								<path id="&lt;Path&gt;" class="s7" d="m609.3 391.7c-0.3-0.1 0.3-2.4 1.3-5 1-2.6 2-4.6 2.3-4.5 0.3 0.1-0.3 2.3-1.3 4.9-1 2.6-2.1 4.7-2.3 4.6z"/>
							</g>
						</g>
					</g>
					<g id="&lt;Group&gt;">
						<g id="&lt;Group&gt;">
							<g id="&lt;Group&gt;">
								<path id="&lt;Path&gt;" class="s7" d="m623.3 387.1c0 0.3-1.9 0.5-4.1 0.5-2.2 0-4-0.2-4-0.5 0-0.3 1.8-0.5 4-0.5 2.2 0 4.1 0.2 4.1 0.5z"/>
							</g>
						</g>
					</g>
					<g id="&lt;Group&gt;">
						<g id="&lt;Group&gt;">
							<g id="&lt;Group&gt;">
								<path id="&lt;Path&gt;" class="s7" d="m626.6 390.6c-0.3-0.1 0.2-2 1-4.3 0.8-2.2 1.7-4 2-3.9 0.2 0.1-0.2 2-1 4.3-0.9 2.2-1.7 4-2 3.9z"/>
							</g>
						</g>
					</g>
					<g id="&lt;Group&gt;">
						<g id="&lt;Group&gt;">
							<g id="&lt;Group&gt;">
								<path id="&lt;Path&gt;" class="s7" d="m647 387.1c0 0.3-3.6 0.5-8.1 0.5-4.5 0-8.1-0.2-8.1-0.5 0-0.3 3.6-0.5 8.1-0.5 4.5 0 8.1 0.2 8.1 0.5z"/>
							</g>
						</g>
					</g>
				</g>
				<g id="&lt;Group&gt;">
					<g id="&lt;Group&gt;">
						<path id="&lt;Path&gt;" class="s4" d="m659.1 455.8h-311v-21.5h311z"/>
					</g>
				</g>
				<g id="&lt;Group&gt;">
					<g id="&lt;Group&gt;">
						<g id="&lt;Group&gt;">
							<path id="&lt;Path&gt;" class="s5" d="m441.7 472.8c0 0.3-14.9 0.5-33.4 0.5-18.4 0-33.3-0.2-33.3-0.5 0-0.3 14.9-0.5 33.3-0.5 18.5 0 33.4 0.2 33.4 0.5z"/>
						</g>
					</g>
				</g>
				<g id="&lt;Group&gt;">
					<g id="&lt;Group&gt;">
						<g id="&lt;Group&gt;">
							<path id="&lt;Path&gt;" class="s5" d="m550.9 473.5c0 0.3-6.5 0.5-14.5 0.5-8.1 0-14.6-0.2-14.6-0.5 0-0.3 6.5-0.5 14.6-0.5 8 0 14.5 0.2 14.5 0.5z"/>
						</g>
					</g>
				</g>
				<g id="&lt;Group&gt;">
					<g id="&lt;Group&gt;">
						<g id="&lt;Group&gt;">
							<path id="&lt;Path&gt;" class="s5" d="m591.9 471.7c0 0.3-1.4 0.6-3.2 0.6-1.8 0-3.2-0.3-3.2-0.6 0-0.3 1.4-0.5 3.2-0.5 1.8 0 3.2 0.2 3.2 0.5z"/>
						</g>
					</g>
				</g>
				<g id="&lt;Group&gt;">
					<g id="&lt;Group&gt;">
						<g id="&lt;Group&gt;">
							<path id="&lt;Path&gt;" class="s5" d="m647.6 472.4c0 0.3-5.8 0.6-12.9 0.6-7.2 0-13-0.3-13-0.6 0-0.2 5.8-0.5 13-0.5 7.1 0 12.9 0.3 12.9 0.5z"/>
						</g>
					</g>
				</g>
				<g id="&lt;Group&gt;">
					<g id="&lt;Group&gt;">
						<g id="&lt;Group&gt;">
							<path id="&lt;Path&gt;" class="s5" d="m476.2 502.6c0 0.3-22.7 0.6-50.6 0.6-28 0-50.6-0.3-50.6-0.6 0-0.3 22.6-0.5 50.6-0.5 27.9 0 50.6 0.2 50.6 0.5z"/>
						</g>
					</g>
				</g>
				<g id="&lt;Group&gt;">
					<g id="&lt;Group&gt;">
						<g id="&lt;Group&gt;">
							<path id="&lt;Path&gt;" class="s5" d="m545.6 503c0 0.3-5.3 0.5-11.9 0.5-6.6 0-11.9-0.2-11.9-0.5 0-0.3 5.3-0.5 11.9-0.5 6.6 0 11.9 0.2 11.9 0.5z"/>
						</g>
					</g>
				</g>
				<g id="&lt;Group&gt;">
					<g id="&lt;Group&gt;">
						<g id="&lt;Group&gt;">
							<path id="&lt;Path&gt;" class="s5" d="m593.3 502.6c0 0.3-2.1 0.6-4.6 0.6-2.6 0-4.6-0.3-4.6-0.6 0-0.3 2-0.5 4.6-0.5 2.5 0 4.6 0.2 4.6 0.5z"/>
						</g>
					</g>
				</g>
				<g id="&lt;Group&gt;">
					<g id="&lt;Group&gt;">
						<g id="&lt;Group&gt;">
							<path id="&lt;Path&gt;" class="s5" d="m644.1 501.9c0 0.3-5.6 0.5-12.4 0.5-6.9 0-12.5-0.2-12.5-0.5 0-0.3 5.6-0.5 12.5-0.5 6.8 0 12.4 0.2 12.4 0.5z"/>
						</g>
					</g>
				</g>
				<g id="&lt;Group&gt;">
					<g id="&lt;Group&gt;">
						<g id="&lt;Group&gt;">
							<path id="&lt;Path&gt;" class="s4" d="m658.2 582.3h-146.5v-19.1h146.5z"/>
						</g>
					</g>
					<g id="&lt;Group&gt;">
						<g id="&lt;Group&gt;">
							<g id="&lt;Group&gt;">
								<path id="&lt;Path&gt;" class="s7" d="m626.1 536.2c0 0.3-7.8 0.5-17.4 0.5-9.6 0-17.4-0.2-17.4-0.5 0-0.3 7.8-0.5 17.4-0.5 9.6 0 17.4 0.2 17.4 0.5z"/>
							</g>
						</g>
					</g>
					<g id="&lt;Group&gt;">
						<g id="&lt;Group&gt;">
							<g id="&lt;Group&gt;">
								<path id="&lt;Path&gt;" class="s7" d="m626.1 549c0 0.3-7.8 0.6-17.4 0.6-9.6 0-17.4-0.3-17.4-0.6 0-0.3 7.8-0.5 17.4-0.5 9.6 0 17.4 0.2 17.4 0.5z"/>
							</g>
						</g>
					</g>
					<g id="&lt;Group&gt;">
						<g id="&lt;Group&gt;">
							<g id="&lt;Group&gt;">
								<path id="&lt;Path&gt;" class="s7" d="m561.4 549c0 0.3-7.8 0.6-17.4 0.6-9.6 0-17.4-0.3-17.4-0.6 0-0.3 7.8-0.5 17.4-0.5 9.6 0 17.4 0.2 17.4 0.5z"/>
							</g>
						</g>
					</g>
					<g id="&lt;Group&gt;">
						<g id="&lt;Group&gt;">
							<g id="&lt;Group&gt;">
								<path id="&lt;Path&gt;" class="s7" d="m561.4 535.6c0 0.3-11.6 0.5-26 0.5-14.3 0-26-0.2-26-0.5 0-0.3 11.7-0.5 26-0.5 14.4 0 26 0.2 26 0.5z"/>
							</g>
						</g>
					</g>
					<g id="&lt;Group&gt;">
						<g id="&lt;Group&gt;">
							<g id="&lt;Group&gt;">
								<path id="&lt;Path&gt;" class="s2" d="m626.1 573.7c0 0.3-7.8 0.5-17.4 0.5-9.6 0-17.4-0.2-17.4-0.5 0-0.3 7.8-0.5 17.4-0.5 9.6 0 17.4 0.2 17.4 0.5z"/>
							</g>
						</g>
					</g>
					<g id="&lt;Group&gt;">
						<g id="&lt;Group&gt;">
							<g id="&lt;Group&gt;">
								<path id="&lt;Path&gt;" class="s2" d="m563.3 573.7c0 0.3-7.8 0.5-17.4 0.5-9.6 0-17.4-0.2-17.4-0.5 0-0.3 7.8-0.5 17.4-0.5 9.6 0 17.4 0.2 17.4 0.5z"/>
							</g>
						</g>
					</g>
				</g>
				<g id="&lt;Group&gt;">
					<g id="&lt;Group&gt;">
						<g id="&lt;Group&gt;">
							<g id="&lt;Group&gt;">
								<path id="&lt;Path&gt;" class="s4" d="m365.2 317.8h-3.7c-1.7 0-3.2-1.4-3.2-3.2v-3.6c0-1.8 1.5-3.2 3.2-3.2h3.7c1.7 0 3.2 1.4 3.2 3.2v3.6c0 1.8-1.5 3.2-3.2 3.2z"/>
							</g>
						</g>
						<g id="&lt;Group&gt;">
							<g id="&lt;Group&gt;">
								<path id="&lt;Path&gt;" class="s4" d="m361.2 319.3l8.4-0.1v-8.6c0-0.3 0.3-0.6 0.6-0.6 0.3 0 0.6 0.3 0.6 0.6v10h-9.6c-0.4 0-0.6-0.2-0.6-0.6v-0.1c0-0.3 0.2-0.6 0.6-0.6z"/>
							</g>
						</g>
					</g>
					<g id="&lt;Group&gt;">
						<g id="&lt;Group&gt;">
							<g id="&lt;Group&gt;">
								<path id="&lt;Path&gt;" class="s4" d="m433.1 311.2c0 0.3-12.9 0.6-28.8 0.6-15.9 0-28.8-0.3-28.8-0.6 0-0.3 12.9-0.5 28.8-0.5 15.9 0 28.8 0.2 28.8 0.5z"/>
							</g>
						</g>
					</g>
					<g id="&lt;Group&gt;">
						<g id="&lt;Group&gt;">
							<g id="&lt;Group&gt;">
								<path id="&lt;Path&gt;" class="s4" d="m406.4 316.8c0 0.3-6.7 0.5-15.1 0.5-8.3 0-15-0.2-15-0.5 0-0.3 6.7-0.6 15-0.6 8.4 0 15.1 0.3 15.1 0.6z"/>
							</g>
						</g>
					</g>
				</g>
				<g id="&lt;Group&gt;">
					<g id="&lt;Group&gt;">
						<g id="&lt;Group&gt;">
							<path id="&lt;Path&gt;" class="s7" d="m678.8 720.9c0-4.1-0.2-180.6-0.4-444.4l0.4 0.5c-103.8 0-222.5 0-348 0.1h-0.1l0.6-0.6c-0.1 164.8-0.1 317.7-0.1 444.4l-0.5-0.5c210 0.3 344.5 0.5 348.1 0.5-3.6 0-138.1 0.1-348.1 0.4h-0.4v-0.4c0-126.7 0-279.6-0.1-444.4v-0.5h0.5 0.1c125.5 0 244.2 0.1 348 0.1h0.5v0.4c-0.3 263.8-0.5 440.3-0.5 444.4z"/>
						</g>
					</g>
				</g>
				<g id="&lt;Group&gt;">
					<g id="&lt;Group&gt;">
						<g id="&lt;Group&gt;">
							<g id="&lt;Group&gt;">
								<g id="&lt;Group&gt;">
									<path id="&lt;Path&gt;" class="s7" d="m503.6 398.6c0 0.3-18.6 0.5-41.5 0.5-23 0-41.6-0.2-41.6-0.5 0-0.3 18.6-0.5 41.6-0.5 22.9 0 41.5 0.2 41.5 0.5z"/>
								</g>
							</g>
						</g>
						<g id="&lt;Group&gt;">
							<g id="&lt;Group&gt;">
								<g id="&lt;Group&gt;">
									<path id="&lt;Path&gt;" class="s7" d="m503.6 406.5c0 0.3-18.6 0.6-41.5 0.6-23 0-41.6-0.3-41.6-0.6 0-0.3 18.6-0.5 41.6-0.5 22.9 0 41.5 0.2 41.5 0.5z"/>
								</g>
							</g>
						</g>
						<g id="&lt;Group&gt;">
							<g id="&lt;Group&gt;">
								<g id="&lt;Group&gt;">
									<path id="&lt;Path&gt;" class="s7" d="m451.6 414.5c0 0.3-7 0.5-15.6 0.5-8.6 0-15.5-0.2-15.5-0.5 0-0.3 6.9-0.5 15.5-0.5 8.6 0 15.6 0.2 15.6 0.5z"/>
								</g>
							</g>
						</g>
					</g>
					<g id="&lt;Group&gt;">
						<g id="&lt;Group&gt;">
							<g id="&lt;Group&gt;">
								<path id="&lt;Path&gt;" class="s7" d="m504.9 390c0 0.3-35 0.5-78.2 0.5-43.2 0-78.2-0.2-78.2-0.5 0-0.3 35-0.5 78.2-0.5 43.2 0 78.2 0.2 78.2 0.5z"/>
							</g>
						</g>
					</g>
				</g>
				<g id="&lt;Group&gt;">
					<g id="&lt;Group&gt;">
						<g id="&lt;Group&gt;">
							<path id="&lt;Path&gt;" class="s2" d="m443.6 445c0 0.3-15.6 0.6-34.8 0.6-19.3 0-34.9-0.3-34.9-0.6 0-0.3 15.6-0.5 34.9-0.5 19.2 0 34.8 0.2 34.8 0.5z"/>
						</g>
					</g>
				</g>
				<g id="&lt;Group&gt;">
					<g id="&lt;Group&gt;">
						<g id="&lt;Group&gt;">
							<path id="&lt;Path&gt;" class="s2" d="m552.2 445c0 0.3-8.3 0.6-18.5 0.6-10.2 0-18.5-0.3-18.5-0.6 0-0.3 8.3-0.5 18.5-0.5 10.2 0 18.5 0.2 18.5 0.5z"/>
						</g>
					</g>
				</g>
				<g id="&lt;Group&gt;">
					<g id="&lt;Group&gt;">
						<g id="&lt;Group&gt;">
							<path id="&lt;Path&gt;" class="s2" d="m605 445c0 0.3-6.2 0.6-13.7 0.6-7.6 0-13.7-0.3-13.7-0.6 0-0.3 6.1-0.5 13.7-0.5 7.5 0 13.7 0.2 13.7 0.5z"/>
						</g>
					</g>
				</g>
				<g id="&lt;Group&gt;">
					<g id="&lt;Group&gt;">
						<g id="&lt;Group&gt;">
							<path id="&lt;Path&gt;" class="s2" d="m650.6 445c0 0.3-6.1 0.6-13.7 0.6-7.5 0-13.7-0.3-13.7-0.6 0-0.3 6.2-0.5 13.7-0.5 7.6 0 13.7 0.2 13.7 0.5z"/>
						</g>
					</g>
				</g>
			</g>
			<g id="&lt;Group&gt;">
				<g id="&lt;Group&gt;">
					<path id="&lt;Path&gt;" class="s4" d="m125 918.2v-344.2c0-11.7 9.5-21.2 21.2-21.2h707.6c11.7 0 21.2 9.5 21.2 21.2v344.2z"/>
				</g>
			</g>
			<g id="&lt;Group&gt;">
				<g id="&lt;Group&gt;">
					<g id="&lt;Group&gt;">
						<path id="&lt;Path&gt;" class="s7" d="m657.6 646.2c-5.7 17.4-24.4 26.9-41.8 21.2-17.4-5.8-26.9-24.5-21.2-41.9 5.8-17.4 24.5-26.8 41.9-21.1 17.4 5.7 26.8 24.4 21.1 41.8z"/>
					</g>
				</g>
				<g id="&lt;Group&gt;">
					<g id="&lt;Group&gt;">
						<g id="&lt;Group&gt;">
							<path id="&lt;Path&gt;" class="s7" d="m666.6 635.9c-0.2 0 0.1-3.6-1.5-9.9-0.7-3.1-2.2-6.8-4.5-10.6-2.3-3.9-5.7-8-10.2-11.4-4.6-3.4-10.3-6.3-16.9-7.4-6.6-1.2-14-1-21 1.7-3.6 1.3-7 3.1-10.1 5.5-1.6 1.1-3.1 2.5-4.5 3.8-1.4 1.5-2.8 3-4 4.7-4.9 6.5-7.6 14.9-7.7 23.6 0.1 8.6 2.8 17 7.7 23.6 1.2 1.7 2.6 3.1 4 4.6 1.4 1.4 2.9 2.8 4.5 3.9 3.1 2.3 6.5 4.2 10.1 5.4 7 2.7 14.4 2.9 21 1.8 6.6-1.2 12.3-4.1 16.9-7.5 4.5-3.4 7.9-7.4 10.2-11.3 2.3-3.9 3.8-7.6 4.5-10.7 1.6-6.2 1.3-9.8 1.5-9.8q0.1 0 0.1 0.6-0.1 0.8-0.1 2c0 0.8 0 1.9-0.2 3.1-0.2 1.2-0.4 2.7-0.8 4.2-0.7 3.2-2.1 6.9-4.4 10.9-2.3 4-5.7 8.2-10.3 11.7-4.6 3.5-10.5 6.5-17.2 7.7-6.7 1.2-14.3 1.1-21.6-1.7-3.6-1.2-7.1-3.1-10.4-5.5-1.7-1.2-3.1-2.6-4.6-4-1.4-1.5-2.9-3-4.1-4.7-5-6.8-7.9-15.4-8-24.3 0.1-8.9 3-17.6 8-24.3 1.2-1.8 2.7-3.2 4.1-4.8 1.5-1.4 2.9-2.8 4.6-3.9 3.3-2.4 6.8-4.3 10.4-5.6 7.3-2.7 14.9-2.9 21.6-1.7 6.7 1.2 12.6 4.2 17.2 7.7 4.6 3.6 8 7.7 10.3 11.7 2.3 4 3.7 7.8 4.4 10.9 0.4 1.6 0.6 3 0.8 4.3 0.2 1.2 0.2 2.2 0.2 3.1q0 1.2 0.1 1.9 0 0.7-0.1 0.7z"/>
						</g>
					</g>
				</g>
			</g>
			<g id="&lt;Group&gt;">
				<g id="&lt;Group&gt;">
					<g id="&lt;Group&gt;">
						<path id="&lt;Path&gt;" class="s7" d="m872.8 707.7c0 0.3-167.4 0.5-373.8 0.5-206.5 0-373.9-0.2-373.9-0.5 0-0.3 167.4-0.5 373.9-0.5 206.4 0 373.8 0.2 373.8 0.5z"/>
					</g>
				</g>
			</g>
			<g id="&lt;Group&gt;">
				<g id="&lt;Group&gt;">
					<path id="&lt;Path&gt;" class="s4" d="m727.5 469.5v90.1h-48.8v-4.8-55.9h19.4v-29.4z"/>
				</g>
			</g>
			<g id="&lt;Group&gt;">
				<g id="&lt;Group&gt;">
					<path id="&lt;Path&gt;" class="s4" d="m330.8 498.9v55.9 0.5h-48.7v-85.8h29.4v29.4z"/>
				</g>
			</g>
			<g id="&lt;Group&gt;" style="opacity: .2">
				<g id="&lt;Group&gt;">
					<path id="&lt;Path&gt;" class="s5" d="m723.4 920.2l-453.9-10.3v-27.2h453.9z"/>
				</g>
			</g>
			<g id="&lt;Group&gt;" style="opacity: .5">
				<g id="&lt;Group&gt;">
					<path id="&lt;Path&gt;" class="s5" d="m281.9 838.5v-81h434.3v81z"/>
				</g>
			</g>
			<g id="&lt;Group&gt;">
				<g id="&lt;Group&gt;">
					<g id="&lt;Group&gt;">
						<path id="&lt;Path&gt;" class="s7" d="m847.7 554.8c0 0.3-157.2 0.6-351 0.6-193.9 0-351.1-0.3-351.1-0.6 0-0.3 157.2-0.5 351.1-0.5 193.8 0 351 0.2 351 0.5z"/>
					</g>
				</g>
			</g>
			<g id="&lt;Group&gt;">
				<g id="&lt;Group&gt;">
					<g id="&lt;Group&gt;">
						<path id="&lt;Path&gt;" class="s7" d="m528.5 708.8c-0.3 0-0.6-34.4-0.6-76.7 0-42.3 0.3-76.6 0.6-76.6 0.2 0 0.5 34.3 0.5 76.6 0 42.3-0.3 76.7-0.5 76.7z"/>
					</g>
				</g>
			</g>
			<g id="&lt;Group&gt;">
				<g id="&lt;Group&gt;">
					<g id="&lt;Group&gt;">
						<path id="&lt;Path&gt;" class="s7" d="m243.7 705.4c-0.2 0-0.5-33.7-0.5-75.3 0-41.5 0.3-75.2 0.5-75.2 0.3 0 0.6 33.7 0.6 75.2 0 41.6-0.3 75.3-0.6 75.3z"/>
					</g>
				</g>
			</g>
			<g id="&lt;Group&gt;">
				<g id="&lt;Group&gt;">
					<g id="&lt;Group&gt;">
						<g id="&lt;Group&gt;">
							<g id="&lt;Group&gt;">
								<path id="&lt;Path&gt;" class="s6" d="m617.1 624.8c0.1 0.1-0.7 0.7-1.8 2.1-1.1 1.4-2.5 3.7-3 6.8-0.6 3.1 0 7.1 2.4 10.4 1.2 1.7 2.8 3.2 4.8 4.3 2 1 4.3 1.6 6.7 1.7 2.3-0.1 4.7-0.7 6.6-1.7 2-1.1 3.6-2.6 4.8-4.3 2.4-3.4 2.9-7.4 2.4-10.5-0.5-3.1-2-5.4-3.1-6.7-1.1-1.4-1.9-2-1.8-2.1q0-0.1 0.6 0.4c0.4 0.3 0.9 0.7 1.6 1.4 1.2 1.3 2.8 3.6 3.4 6.9 0.7 3.2 0.2 7.5-2.3 11.1-1.3 1.8-3 3.5-5.1 4.6-2.1 1.2-4.6 1.9-7.1 1.9-2.6 0-5.1-0.7-7.2-1.8-2.1-1.2-3.8-2.8-5.1-4.6-2.6-3.6-3-7.9-2.4-11.1 0.7-3.3 2.2-5.6 3.4-6.9 0.7-0.7 1.2-1.2 1.6-1.5q0.6-0.4 0.6-0.4z"/>
							</g>
						</g>
					</g>
					<g id="&lt;Group&gt;">
						<g id="&lt;Group&gt;">
							<g id="&lt;Group&gt;">
								<path id="&lt;Path&gt;" class="s6" d="m626.1 616.7c0.3 0 0.5 5.4 0.5 11.9 0 6.6-0.2 11.9-0.5 11.9-0.3 0-0.5-5.3-0.5-11.9 0-6.5 0.2-11.9 0.5-11.9z"/>
							</g>
						</g>
					</g>
				</g>
			</g>
			<g id="&lt;Group&gt;">
				<g id="&lt;Group&gt;">
					<g id="&lt;Group&gt;">
						<path id="&lt;Path&gt;" class="s2" d="m452.4 673.2h-132.6c-2 0-3.6-1.7-3.6-3.6v-64.2c0-2 1.6-3.6 3.6-3.6h132.6c2 0 3.6 1.6 3.6 3.6v64.2c0 1.9-1.6 3.6-3.6 3.6z"/>
					</g>
				</g>
				<g id="&lt;Group&gt;">
					<g id="&lt;Group&gt;">
						<g id="&lt;Group&gt;">
							<path id="&lt;Path&gt;" class="s7" d="m383.1 635.9l-1.9 1.9-2-2v-15.4l1.9-1.9 1.9 1.9z"/>
						</g>
					</g>
					<g id="&lt;Group&gt;">
						<g id="&lt;Group&gt;">
							<path id="&lt;Path&gt;" class="s7" d="m383.1 655.8l-1.9 1.9-2-2v-15.4l1.9-1.9 1.9 1.9z"/>
						</g>
					</g>
					<g id="&lt;Group&gt;">
						<g id="&lt;Group&gt;">
							<path id="&lt;Path&gt;" class="s7" d="m403.1 655.8l-1.9 1.9-2-2v-15.4l1.9-1.9 1.9 1.9z"/>
						</g>
					</g>
					<g id="&lt;Group&gt;">
						<g id="&lt;Group&gt;">
							<path id="&lt;Path&gt;" class="s7" d="m403.2 635.9l-1.9 1.9-2-2v-15.4l2-1.9 1.8 1.9z"/>
						</g>
					</g>
					<g id="&lt;Group&gt;">
						<g id="&lt;Group&gt;">
							<path id="&lt;Path&gt;" class="s7" d="m398.8 616.2l1.9 1.9-2 2h-15.4l-1.9-1.9 1.9-1.9z"/>
						</g>
					</g>
					<g id="&lt;Group&gt;">
						<g id="&lt;Group&gt;">
							<path id="&lt;Path&gt;" class="s7" d="m398.8 656.1l1.9 1.9-2 2h-15.4l-1.9-1.9 1.9-1.8z"/>
						</g>
					</g>
					<g id="&lt;Group&gt;">
						<g id="&lt;Group&gt;">
							<path id="&lt;Path&gt;" class="s0" d="m398.8 636.2l1.9 1.9-2 2h-15.4l-1.9-1.9 1.9-1.9z"/>
						</g>
					</g>
				</g>
				<g id="&lt;Group&gt;">
					<g id="&lt;Group&gt;">
						<g id="&lt;Group&gt;">
							<path id="&lt;Path&gt;" class="s0" d="m419.2 635.6l-1.9 1.9-2-2v-15.4l1.9-1.9 1.9 1.9z"/>
						</g>
					</g>
					<g id="&lt;Group&gt;">
						<g id="&lt;Group&gt;">
							<path id="&lt;Path&gt;" class="s7" d="m419.2 655.5l-1.9 1.9-2-2v-15.4l1.9-1.9 1.9 1.9z"/>
						</g>
					</g>
					<g id="&lt;Group&gt;">
						<g id="&lt;Group&gt;">
							<path id="&lt;Path&gt;" class="s0" d="m439.2 655.5l-1.8 1.9-2-2v-15.4l1.9-1.9 1.8 1.9z"/>
						</g>
					</g>
					<g id="&lt;Group&gt;">
						<g id="&lt;Group&gt;">
							<path id="&lt;Path&gt;" class="s7" d="m439.4 635.6l-1.9 1.9-2-2v-15.4l1.9-1.9 1.9 1.9z"/>
						</g>
					</g>
					<g id="&lt;Group&gt;">
						<g id="&lt;Group&gt;">
							<path id="&lt;Path&gt;" class="s7" d="m434.9 615.9l1.9 1.9-2 2h-15.4l-1.9-1.9 1.9-1.9z"/>
						</g>
					</g>
					<g id="&lt;Group&gt;">
						<g id="&lt;Group&gt;">
							<path id="&lt;Path&gt;" class="s7" d="m434.9 655.8l1.9 1.9-2 2h-15.4l-1.9-1.9 1.9-1.9z"/>
						</g>
					</g>
					<g id="&lt;Group&gt;">
						<g id="&lt;Group&gt;">
							<path id="&lt;Path&gt;" class="s7" d="m434.9 635.9l1.9 1.9-2 2h-15.4l-1.9-1.9 1.9-1.9z"/>
						</g>
					</g>
				</g>
				<g id="&lt;Group&gt;">
					<g id="&lt;Group&gt;">
						<g id="&lt;Group&gt;">
							<path id="&lt;Path&gt;" class="s7" d="m456.9 678.7c-0.1 0 0.4 0 1.1-0.2 0.7-0.1 1.9-0.6 2.8-1.7 0.5-0.6 0.9-1.3 1.1-2.2 0.3-0.9 0.1-1.9 0.2-3q-0.1-3.4-0.1-7.7c0-11.6-0.1-28.2-0.2-48.8q0-3.8 0-7.9 0-2 0-4c0.1-1.4-0.3-2.6-1.2-3.6-0.8-1-2.1-1.7-3.4-1.7q-2.2 0-4.3 0-4.4 0-9 0c-12.1 0-25 0-38.6 0-27.2 0-57.1 0.1-88.5 0.1-1.8 0-3.5 1-4.3 2.6-0.5 0.8-0.6 1.6-0.6 2.6v2.9q0 5.8 0 11.5 0 11.5 0 22.6 0 11.1 0 21.8 0 5.4 0 10.6c-0.2 1.7 0.4 3.3 1.6 4.4 0.5 0.5 1.2 0.9 2 1.1 0.7 0.2 1.5 0.1 2.4 0.1 27.2 0.1 51.7 0.1 72.3 0.2 20.6 0 37.2 0.1 48.8 0.1 5.7 0.1 10.2 0.1 13.2 0.1q2.3 0.1 3.5 0.1 1.1 0 1.2 0-0.1 0-1.2 0.1-1.2 0-3.5 0c-3 0-7.5 0.1-13.2 0.1-11.6 0.1-28.2 0.1-48.8 0.2-20.6 0-45.1 0.1-72.3 0.1-0.8 0-1.7 0.1-2.7-0.2-0.9-0.2-1.7-0.7-2.4-1.3-1.4-1.3-2.1-3.3-1.9-5.1q0-5.2 0-10.6 0-10.7 0-21.8 0-11.1 0-22.6 0-5.7 0-11.5v-2.9c-0.1-1 0.1-2.2 0.6-3.1 1-1.9 3.1-3.2 5.3-3.2 31.4 0 61.3 0.1 88.5 0.1 13.6 0 26.5 0 38.6 0q4.6 0 9 0c1.4 0 2.8 0 4.3 0.1 1.6 0 3 0.8 4 1.9 1 1.2 1.5 2.7 1.4 4.2q0 2 0 4 0 4.1 0 7.9c-0.1 20.6-0.1 37.2-0.2 48.8q0 4.3 0 7.7c-0.1 1 0 2.1-0.2 3-0.2 1-0.7 1.7-1.2 2.3-1 1.2-2.2 1.6-3 1.7-0.7 0.2-1.1 0.1-1.1 0.1z"/>
						</g>
					</g>
				</g>
			</g>
			<g id="&lt;Group&gt;">
				<g id="&lt;Group&gt;">
					<g id="&lt;Group&gt;">
						<path id="&lt;Path&gt;" class="s8" d=""/>
					</g>
				</g>
			</g>
			<g id="&lt;Group&gt;">
				<g id="&lt;Group&gt;">
					<g id="&lt;Group&gt;">
						<path id="&lt;Path&gt;" class="s7" d="m875 757.5c0 0.3-167.7 0.6-374.4 0.6-206.8 0-374.4-0.3-374.4-0.6 0-0.2 167.6-0.5 374.4-0.5 206.7 0 374.4 0.3 374.4 0.5z"/>
					</g>
				</g>
			</g>
			<g id="&lt;Group&gt;">
				<g id="&lt;Group&gt;">
					<g id="&lt;Group&gt;">
						<path id="&lt;Path&gt;" class="s4" d="m729.6 901.4h-473.7v-18.7h473.7z"/>
					</g>
				</g>
				<g id="&lt;Group&gt;">
					<g id="&lt;Group&gt;">
						<g id="&lt;Group&gt;">
							<path id="&lt;Path&gt;" class="s7" d="m729.6 901.4c0 0 0-1.5 0-4.5 0-3.1-0.1-7.8-0.1-14.2l0.1 0.1c-54.7 0.1-246.1 0.2-473.7 0.4l0.5-0.5c0 6.4 0 12.8 0 18.7l-0.5-0.5c131.7 0.1 250.1 0.2 335.5 0.2 42.8 0.1 77.3 0.2 101.1 0.2 12 0 21.2 0.1 27.5 0.1q4.7 0 7.2 0c1.6 0 2.4 0 2.4 0q0 0.1-2.4 0.1-2.4 0-7 0c-6.3 0-15.5 0.1-27.4 0.1-23.8 0-58.3 0.1-101 0.2-85.5 0-204 0.1-335.9 0.2h-0.5v-0.6c0-5.9 0-12.3 0-18.7v-0.5h0.5c227.6 0.2 419 0.3 473.7 0.4h0.2v0.1c-0.1 6.4-0.1 11.1-0.1 14.2 0 3.1-0.1 4.5-0.1 4.5z"/>
						</g>
					</g>
				</g>
			</g>
			<g id="&lt;Group&gt;">
				<g id="&lt;Group&gt;">
					<g id="&lt;Group&gt;">
						<g id="&lt;Group&gt;">
							<path id="&lt;Path&gt;" class="s2" d="m269.5 882.2v-16h13.6l-13.6-8.7v-19h446.7v22.1l-9.7 4.7 9.7 0.1v17.1z"/>
						</g>
					</g>
					<g id="&lt;Group&gt;">
						<g id="&lt;Group&gt;">
							<path id="&lt;Path&gt;" class="s0" d="m301.9 838.5v43.7h-32.4v-16.3h13.1l-13.1-8.4v-19z"/>
						</g>
					</g>
				</g>
				<g id="&lt;Group&gt;">
					<g id="&lt;Group&gt;">
						<g id="&lt;Group&gt;">
							<path id="&lt;Path&gt;" class="s9" d="m706.5 865.3c0 0.3-90.6 0.7-202.3 0.9-111.8 0.2-202.3 0.1-202.3-0.2 0-0.2 90.5-0.6 202.3-0.8 111.7-0.3 202.3-0.2 202.3 0.1z"/>
						</g>
					</g>
				</g>
				<g id="&lt;Group&gt;">
					<g id="&lt;Group&gt;">
						<g id="&lt;Group&gt;">
							<path id="&lt;Path&gt;" class="s9" d="m706.5 854.2c0 0.3-90.6 0.7-202.3 0.9-111.8 0.2-202.3 0.1-202.3-0.2 0-0.3 90.5-0.6 202.3-0.9 111.7-0.2 202.3-0.1 202.3 0.2z"/>
						</g>
					</g>
				</g>
			</g>
			<g id="&lt;Group&gt;">
				<g id="&lt;Group&gt;">
					<g id="&lt;Group&gt;">
						<path id="&lt;Path&gt;" class="s8" d=""/>
					</g>
				</g>
			</g>
		</g>
	</g>
	<g id="Floor">
		<g id="&lt;Group&gt;">
			<g id="&lt;Group&gt;">
				<g id="&lt;Group&gt;">
					<path id="&lt;Path&gt;" class="s7" d="m968 920.2c0 0.3-210 0.5-469 0.5-259.1 0-469.1-0.2-469.1-0.5 0-0.3 210-0.5 469.1-0.5 259 0 469 0.2 469 0.5z"/>
				</g>
			</g>
		</g>
	</g>
	<g id="Character">
		<g id="&lt;Group&gt;">
			<g id="&lt;Group&gt;" style="opacity: .3">
				<g id="&lt;Group&gt;">
					<g id="&lt;Group&gt;">
						<path id="&lt;Path&gt;" class="s5" d="m239 555.2c-13.7-0.2-25.6 10.6-31.1 23.1-5.6 12.5-6 26.6-6.4 40.3-0.6 19.9-1.1 39.9 1 59.7 1 10.4 2.9 21 1.3 31.4-3.6 23-33.1 40-56.4 39.4l23.8-59.5-4.2-134.3 29.6-0.4z"/>
					</g>
				</g>
			</g>
			<g id="&lt;Group&gt;">
				<g id="&lt;Group&gt;">
					<g id="&lt;Group&gt;">
						<g id="&lt;Group&gt;">
							<g id="&lt;Group&gt;">
								<path id="&lt;Path&gt;" class="s10" d="m220.3 637.5l-7.3 81-32.5 2.3-3.4-77.2z"/>
							</g>
						</g>
					</g>
				</g>
				<g id="&lt;Group&gt;">
					<g id="&lt;Group&gt;">
						<g id="&lt;Group&gt;">
							<path id="&lt;Path&gt;" class="s11" d="m218 709.9l0.2 11.9c0.3 4.5-34.1 37.6-43.6 46.5-1.7 1.7-4.3 2.2-6.6 1.3-3-1.2-4.5-4.7-3.7-7.8l13-48.5 2.9-6.8c11.1 14 34-2.2 34-2.2 2.3 0.9 3.8 3.1 3.8 5.6z"/>
						</g>
					</g>
					<g id="&lt;Group&gt;">
						<g id="&lt;Group&gt;">
							<path id="&lt;Path&gt;" class="s7" d="m169.1 769.9l49.1-52.3v2.6c0.2 2.8-1 4-2.4 5.8-3.9 5.3-14.9 17.3-41 42.3-1.5 1.5-3.6 2.1-5.7 1.6z"/>
						</g>
					</g>
					<g id="&lt;Group&gt;">
						<g id="&lt;Group&gt;">
							<g id="&lt;Group&gt;">
								<path id="&lt;Path&gt;" class="s7" d="m210.7 710.1c1.3-1.4 4.1-0.9 5.2 0.6 1.2 1.4 0.5 4.2-1.1 5.2-1.5 1.1-3.9 0.5-4.9-1.1-1-1.5-0.4-3.9 1.1-4.9"/>
							</g>
						</g>
					</g>
					<g id="&lt;Group&gt;">
						<g id="&lt;Group&gt;">
							<g id="&lt;Group&gt;">
								<path id="&lt;Path&gt;" class="s7" d="m183.3 743.1c-0.4 0.2-1.8-3-5.4-4.8-3.6-1.8-7-1-7.1-1.3 0-0.2 0.8-0.7 2.2-0.9 1.4-0.2 3.5 0 5.5 1 2 1 3.4 2.5 4.1 3.8 0.7 1.3 0.8 2.2 0.7 2.2z"/>
							</g>
						</g>
					</g>
					<g id="&lt;Group&gt;">
						<g id="&lt;Group&gt;">
							<g id="&lt;Group&gt;">
								<path id="&lt;Path&gt;" class="s7" d="m178.9 751.3c-0.3 0.3-2.3-1.7-5.5-2.6-3.1-1-5.9-0.4-6-0.8-0.1-0.3 2.8-1.6 6.4-0.5 3.6 1.1 5.4 3.8 5.1 3.9z"/>
							</g>
						</g>
					</g>
					<g id="&lt;Group&gt;">
						<g id="&lt;Group&gt;">
							<g id="&lt;Group&gt;">
								<path id="&lt;Path&gt;" class="s7" d="m191.4 732.6c-0.2 0.3-3.2-2.8-8.1-4.7-4.7-1.9-9-1.7-9.1-2.1-0.1-0.3 4.5-1.2 9.6 0.9 5.2 2 7.9 5.8 7.6 5.9z"/>
							</g>
						</g>
					</g>
					<g id="&lt;Group&gt;">
						<g id="&lt;Group&gt;">
							<g id="&lt;Group&gt;">
								<path id="&lt;Path&gt;" class="s7" d="m192.5 717.9c-0.1 0.3-3.5-1.1-7.9-1.3-4.4-0.2-7.9 0.9-8.1 0.5-0.1-0.3 3.4-2.1 8.1-1.8 4.8 0.2 8.1 2.3 7.9 2.6z"/>
							</g>
						</g>
					</g>
					<g id="&lt;Group&gt;">
						<g id="&lt;Group&gt;">
							<g id="&lt;Group&gt;">
								<path id="&lt;Path&gt;" class="s7" d="m182.1 716.5c-0.1 0-0.1-0.9 0.3-2.3 0.4-1.5 1.2-3.5 2.9-5.7 0.9-1 1.8-2.3 3.7-2.8 0.9-0.2 2.1 0.2 2.7 1.1 0.5 0.9 0.6 2 0.4 2.9-0.8 3.8-4.7 6.9-9.2 6.7-4.4-0.4-7.8-3.6-8.9-7.2-0.2-0.9-0.3-2 0.4-2.9 0.6-1 1.9-1.2 2.8-0.9 1.7 0.6 2.6 1.9 3.5 2.9 1.8 2 2.8 4 3.3 5.4 0.5 1.4 0.6 2.3 0.5 2.3-0.2 0.1-0.9-3.3-4.5-7.1-0.9-0.9-1.9-2-3.2-2.4-0.6-0.2-1.2 0-1.5 0.5-0.3 0.4-0.3 1.2-0.1 1.9 0.9 3 4.1 5.9 7.8 6.1 3.7 0.3 7.2-2.4 7.9-5.5 0.1-0.7 0.1-1.5-0.2-2-0.3-0.5-0.9-0.8-1.5-0.7-1.3 0.3-2.3 1.4-3.1 2.4-3.4 3.9-3.8 7.4-4 7.3z"/>
							</g>
						</g>
					</g>
				</g>
			</g>
			<g id="&lt;Group&gt;">
				<g id="&lt;Group&gt;">
					<g id="&lt;Group&gt;">
						<g id="&lt;Group&gt;">
							<path id="&lt;Path&gt;" class="s10" d="m152.9 597.6l-51.4 72.3-31.7-19 39.8-75.5z"/>
						</g>
					</g>
				</g>
				<g id="&lt;Group&gt;">
					<g id="&lt;Group&gt;">
						<g id="&lt;Group&gt;">
							<g id="&lt;Group&gt;">
								<g id="&lt;Group&gt;">
									<g id="&lt;Group&gt;">
										<path id="&lt;Path&gt;" class="s11" d="m108.8 660.7l-13.4 24.1-70.8-42.9c4.5-6.6 48.9 1 48.9 1l1.3-2.1c9.1 12.2 20.5 18.4 34 19.9z"/>
									</g>
								</g>
							</g>
						</g>
						<g id="&lt;Group&gt;">
							<g id="&lt;Group&gt;">
								<g id="&lt;Group&gt;">
									<g id="&lt;Group&gt;">
										<g id="&lt;Group&gt;">
											<path id="&lt;Path&gt;" class="s7" d="m97 663.9c1.2 1.2 1.2 3.3 0 4.5-1.1 1.2-3.3 1.2-4.4 0-1.2-1.2-1.3-3.7 0-4.8 1.3-1 3.8-0.9 4.7 0.5"/>
										</g>
									</g>
								</g>
							</g>
						</g>
						<g id="&lt;Group&gt;">
							<g id="&lt;Group&gt;">
								<g id="&lt;Group&gt;">
									<g id="&lt;Group&gt;">
										<path id="&lt;Path&gt;" class="s7" d="m24.6 641.9c1-2.5 5-1.9 5-1.9l69.1 39-3.3 5.8z"/>
									</g>
								</g>
							</g>
						</g>
						<g id="&lt;Group&gt;">
							<g id="&lt;Group&gt;">
								<g id="&lt;Group&gt;">
									<g id="&lt;Group&gt;">
										<g id="&lt;Group&gt;">
											<path id="&lt;Path&gt;" class="s7" d="m76.8 646c1.3 2.6 0.6 5 0.2 4.9-0.4-0.1-0.4-2.1-1.4-4.3-1.1-2.1-2.7-3.3-2.5-3.7 0.1-0.3 2.5 0.5 3.7 3.1z"/>
										</g>
									</g>
								</g>
							</g>
						</g>
						<g id="&lt;Group&gt;">
							<g id="&lt;Group&gt;">
								<g id="&lt;Group&gt;">
									<g id="&lt;Group&gt;">
										<g id="&lt;Group&gt;">
											<path id="&lt;Path&gt;" class="s7" d="m66.3 645.3c0.5 2.7-1 4.5-1.3 4.3-0.4-0.2 0.3-2 0-4.1-0.3-2.2-1.5-3.7-1.2-4 0.2-0.3 2.2 1.1 2.5 3.8z"/>
										</g>
									</g>
								</g>
							</g>
						</g>
						<g id="&lt;Group&gt;">
							<g id="&lt;Group&gt;">
								<g id="&lt;Group&gt;">
									<g id="&lt;Group&gt;">
										<g id="&lt;Group&gt;">
											<path id="&lt;Path&gt;" class="s7" d="m54.9 644.1c0.2-2-0.2-3.7 0.1-3.8 0.4-0.2 1.5 1.5 1.3 3.9-0.3 2.5-1.8 3.9-2.1 3.6-0.3-0.2 0.5-1.7 0.7-3.7z"/>
										</g>
									</g>
								</g>
							</g>
						</g>
					</g>
				</g>
			</g>
			<g id="&lt;Group&gt;">
				<g id="&lt;Group&gt;">
					<g id="&lt;Group&gt;">
						<path id="&lt;Path&gt;" class="s7" d="m297.4 467c0 0 23.2 31.9 19.4 61.5-2.9 22.5-8.4 26.4-8.4 26.4l-71.1 0.1-15.2-95.4 22.1 1.7z"/>
					</g>
				</g>
				<g id="&lt;Group&gt;">
					<g id="&lt;Group&gt;">
						<g id="&lt;Group&gt;">
							<path id="&lt;Path&gt;" class="s7" d="m212.5 514l35.1 40.4-21.1 1.2-7.6 106-41.1-1.2-8.4-120.6c-0.6-12 5.5-23.4 15.8-29.6q0.2-0.1 0.5-0.3c8.7-5.3 20-3.5 26.8 4.1z"/>
						</g>
					</g>
					<g id="&lt;Group&gt;">
						<g id="&lt;Group&gt;">
							<path id="&lt;Path&gt;" class="s7" d="m89.9 612.1l67.6-140c0 0 9.5-14 22.8-13.3 13.3 0.6 96.2 27.2 96.2 27.2v67.7l-29.2-0.7-65.8-6.3-25 47.6-29.4 41.9z"/>
						</g>
					</g>
					<g id="&lt;Group&gt;">
						<g id="&lt;Group&gt;">
							<g id="&lt;Group&gt;">
								<path id="&lt;Path&gt;" class="s11" d="m292.3 495.1q0 0-0.9-0.3-1.1-0.4-2.7-1.1c-2.4-0.9-5.6-2.3-9.6-3.9-8.2-3.3-19.6-7.7-32.3-12.2-12.7-4.4-24.3-8-32.8-10.5-4.2-1.2-7.6-2.2-10-2.9q-1.7-0.5-2.8-0.8-0.9-0.3-0.9-0.3 0-0.1 1 0.1 1.1 0.3 2.7 0.7c2.4 0.5 5.9 1.4 10.2 2.6 8.5 2.3 20.2 5.9 32.9 10.3 12.7 4.4 24.1 8.9 32.2 12.4 4.1 1.7 7.3 3.2 9.6 4.2q1.5 0.7 2.5 1.2 0.9 0.5 0.9 0.5z"/>
							</g>
						</g>
					</g>
					<g id="&lt;Group&gt;">
						<g id="&lt;Group&gt;">
							<g id="&lt;Group&gt;">
								<path id="&lt;Path&gt;" class="s11" d="m294.3 480.6c0 0.1-2.3 0-6.1-0.3-3.8-0.2-9.1-0.5-14.9-0.6-5.7-0.1-10.8-0.2-14.9-0.3-3.8-0.1-6.1-0.2-6.1-0.3 0-0.1 0.5-0.1 1.6-0.2 1.1 0 2.6-0.1 4.5-0.1 3.8-0.1 9.1-0.1 14.9 0 5.8 0.2 11.1 0.5 14.9 0.9 1.9 0.2 3.4 0.4 4.5 0.5 1.1 0.2 1.6 0.3 1.6 0.4z"/>
							</g>
						</g>
					</g>
				</g>
				<g id="&lt;Group&gt;">
					<g id="&lt;Group&gt;">
						<g id="&lt;Group&gt;">
							<path id="&lt;Path&gt;" class="s11" d="m204.2 506c0 0.2-1.9-0.6-5.5-0.6-3.5-0.1-8.8 0.9-14 4.6-5.2 3.7-9.7 10.2-11.9 18.3-2.4 8.1-2.4 17.5-1.6 27.3 1.4 19.4 2.8 37.1 3.7 50 0.5 6.3 0.8 11.4 1.1 15.1q0.1 2.6 0.2 4.1 0 1.5 0 1.5-0.1 0-0.2-1.4-0.2-1.6-0.4-4.2c-0.4-3.6-0.8-8.8-1.4-15.1-1-12.9-2.5-30.5-4.1-50-0.7-9.7-0.7-19.3 1.7-27.5 2.4-8.3 7.1-15 12.5-18.7 5.4-3.7 10.8-4.6 14.4-4.4 1.8 0 3.2 0.3 4.1 0.6q1.4 0.4 1.4 0.4z"/>
						</g>
					</g>
				</g>
				<g id="&lt;Group&gt;">
					<g id="&lt;Group&gt;">
						<g id="&lt;Group&gt;">
							<path id="&lt;Path&gt;" class="s11" d="m272.2 554.4q0 0-0.9-0.1c-0.6-0.2-1.4-0.3-2.5-0.6-2.2-0.6-5.4-1.5-9.2-3-7.5-3-17.4-8.5-27-16.3-9.6-7.9-17.3-16-22.7-22-2.8-3-4.9-5.4-6.4-7.1-1.5-1.7-2.3-2.7-2.2-2.8 0 0 0.9 0.9 2.5 2.5 1.7 1.8 3.9 4.1 6.6 6.9 5.6 5.8 13.3 13.9 22.9 21.6 9.5 7.8 19.2 13.4 26.6 16.5 3.7 1.6 6.8 2.6 9 3.3 2.1 0.7 3.3 1 3.3 1.1z"/>
						</g>
					</g>
				</g>
				<g id="&lt;Group&gt;">
					<g id="&lt;Group&gt;">
						<g id="&lt;Group&gt;">
							<path id="&lt;Path&gt;" class="s11" d="m226.7 535.8c0.2 0-0.3 13.3-1.2 29.5-1 16.3-1.9 29.5-2.2 29.5-0.3 0 0.2-13.2 1.1-29.5 1-16.3 2-29.5 2.3-29.5z"/>
						</g>
					</g>
				</g>
			</g>
			<g id="&lt;Group&gt;">
				<g id="&lt;Group&gt;">
					<g id="&lt;Group&gt;">
						<g id="&lt;Group&gt;">
							<path id="&lt;Path&gt;" class="s7" d="m224.6 309.5c-0.1 0 0.5-0.9 0.3-2.6-0.1-0.8-0.4-1.9-1-2.9-0.6-1-1.6-2-2.7-3.2-1.1-1.1-2.3-2.4-3.1-4.1-0.9-1.7-1.5-3.7-1.7-5.8-0.2-2.1 0.2-4.4 1-6.6 0.9-2.2 2.1-4.2 3.4-6.2 1.2-2.1 2.3-4.1 3-6.1 0.7-2.1 0.9-4.2 0.5-6.2-0.8-3.9-3-7.1-4-10.2-1.1-3-1.1-5.7-0.5-7.4 0.2-0.9 0.6-1.5 0.8-1.9 0.3-0.4 0.5-0.5 0.5-0.5 0.1 0-0.5 0.8-0.9 2.5-0.4 1.7-0.4 4.2 0.8 7.1 1.1 2.9 3.3 6 4.2 10.2 0.5 2.1 0.4 4.5-0.4 6.7-0.7 2.2-1.9 4.3-3.2 6.3-1.2 2.1-2.4 4-3.2 6.1-0.8 2-1.2 4.1-1 6.1 0.1 2 0.6 3.9 1.4 5.5 0.8 1.6 1.9 2.9 3 4 1 1.2 2 2.3 2.6 3.4 0.6 1.2 0.9 2.3 0.9 3.2 0.1 0.9-0.1 1.6-0.3 2-0.2 0.4-0.4 0.6-0.4 0.6z"/>
						</g>
					</g>
				</g>
				<g id="&lt;Group&gt;">
					<g id="&lt;Group&gt;">
						<path id="&lt;Path&gt;" class="s7" d="m285.1 262.5c4.1-0.9 8.6-1.2 12.4 0.7 3.8 1.9 6.6 6.3 5.3 10.4-0.7 2.2-2.5 4-2.9 6.4-0.3 1.6 0.2 3.2 0.4 4.9 0.4 3.6-0.4 7.5-2.6 10.4-2.2 2.9-5.8 4.8-9.5 4.6-3.6-0.2-7.1-2.7-8.3-6.2"/>
					</g>
				</g>
				<g id="&lt;Group&gt;">
					<g id="&lt;Group&gt;">
						<path id="&lt;Path&gt;" class="s7" d="m230.1 239.7c-2.8 3.6-2 8.8-0.3 13 1.7 4.3 4.2 8.4 4.2 12.9 0 4.6-2.3 8.8-3.1 13.2-1.4 7.7 1.9 15.5 1.7 23.3-0.1 2-0.5 4.1-1.5 5.9-1 1.8-2.8 3.2-4.8 3.5 2.3-2.9 1.9-7.1 0.6-10.5-1.4-3.5-3.6-6.5-5-9.9-1.8-4.5-1.9-9.7-0.3-14.3 1.3-3.7 3.6-7.1 3.8-10.9 0.1-3.8-1.8-7.3-3.3-10.8-1.6-3.4-2.8-8.5 1.2-12"/>
					</g>
				</g>
				<g id="&lt;Group&gt;">
					<g id="&lt;Group&gt;">
						<path id="&lt;Path&gt;" class="s7" d="m232.6 228.4c3-0.9 6.6 0.5 8.5 3.2 1.8 2.6 2 6.2 0.9 9.2-1.2 3-3.6 5.5-6.4 7.1-3.8 2.1-8.9 2.7-12.4-0.1-3.6-2.8-4.1-8.6-1.6-12.6 2.4-3.9 7.1-6 11.8-6.4"/>
					</g>
				</g>
				<g id="&lt;Group&gt;">
					<g id="&lt;Group&gt;">
						<path id="&lt;Path&gt;" class="s7" d="m229.6 228.1c2.4-5.4 7.6-9.4 13.3-11.1 5.7-1.6 11.9-1.3 17.6 0.2 5.8 1.4 11.3 3.8 16.7 6.2 4 1.8 8 3.6 11.2 6.6 3.1 3 5.1 6.9 6.3 11 2.4 7.8 2.2 13.3-1.5 20.5-1.6 3.1-0.6 6.7-2.1 9.9-1.4 3.2-7.5 6.8-5.9 9.9"/>
					</g>
				</g>
				<g id="&lt;Group&gt;">
					<g id="&lt;Group&gt;">
						<g id="&lt;Group&gt;">
							<g id="&lt;Group&gt;">
								<g id="&lt;Group&gt;">
									<g id="&lt;Group&gt;">
										<g id="&lt;Group&gt;">
											<g id="&lt;Group&gt;">
												<g id="&lt;Group&gt;">
													<g id="&lt;Group&gt;">
														<g id="&lt;Group&gt;">
															<g id="&lt;Group&gt;">
																<g id="&lt;Group&gt;">
																	<g id="&lt;Group&gt;">
																		<g id="&lt;Group&gt;">
																			<g id="&lt;Group&gt;">
																				<g id="&lt;Group&gt;">
																					<g id="&lt;Group&gt;">
																						<path id="&lt;Path&gt;" class="s10" d="m276.6 234.6c3.2 0.3 5.6 3.1 5.5 6.3l-3.7 83.6c-0.1 9.9-14.6 15.5-25.1 15.2-10.7-0.2-11.1-5.5-11.2-14.9-0.2-15.7-0.2-21.6-0.2-21.5 0 0-13.5-2.2-16.3-19.9-1.3-8.7-0.9-23.1-0.1-34.8 0.7-10.6 7.7-23.5 18.2-22.4z"/>
																					</g>
																				</g>
																			</g>
																		</g>
																	</g>
																</g>
															</g>
														</g>
														<g id="&lt;Group&gt;">
															<g id="&lt;Group&gt;">
																<g id="&lt;Group&gt;">
																	<g id="&lt;Group&gt;">
																		<g id="&lt;Group&gt;">
																			<g id="&lt;Group&gt;">
																				<g id="&lt;Group&gt;">
																					<g id="&lt;Group&gt;">
																						<g id="&lt;Group&gt;">
																							<path id="&lt;Path&gt;" class="s7" d="m231.8 258.6c1.2 0 2.2 1.1 2.2 2.2-0.1 1.2-1.1 2.1-2.4 2.1-1.2-0.1-2.2-1.1-2.1-2.3 0-1.2 1-2.1 2.3-2z"/>
																						</g>
																					</g>
																				</g>
																			</g>
																		</g>
																	</g>
																</g>
															</g>
															<g id="&lt;Group&gt;">
																<g id="&lt;Group&gt;">
																	<g id="&lt;Group&gt;">
																		<g id="&lt;Group&gt;">
																			<g id="&lt;Group&gt;">
																				<g id="&lt;Group&gt;">
																					<g id="&lt;Group&gt;">
																						<g id="&lt;Group&gt;">
																							<g id="&lt;Group&gt;">
																								<path id="&lt;Path&gt;" class="s7" d="m229.5 253.7c0.7-0.6 2-1.2 3.5-1.2 1.5 0 2.8 0.6 3.6 1.2 0.7 0.5 1 1.1 0.9 1.2-0.3 0.3-2-1-4.5-1-2.4 0-4.1 1.3-4.4 1-0.1-0.1 0.1-0.7 0.9-1.2z"/>
																							</g>
																						</g>
																					</g>
																				</g>
																			</g>
																		</g>
																	</g>
																</g>
															</g>
														</g>
														<g id="&lt;Group&gt;">
															<g id="&lt;Group&gt;">
																<g id="&lt;Group&gt;">
																	<g id="&lt;Group&gt;">
																		<g id="&lt;Group&gt;">
																			<g id="&lt;Group&gt;">
																				<g id="&lt;Group&gt;">
																					<g id="&lt;Group&gt;">
																						<g id="&lt;Group&gt;">
																							<path id="&lt;Path&gt;" class="s7" d="m254.8 258.6c1.2 0 2.2 1.1 2.2 2.2-0.1 1.2-1.1 2.1-2.4 2.1-1.2-0.1-2.2-1.1-2.1-2.3 0-1.2 1.1-2.1 2.3-2z"/>
																						</g>
																					</g>
																				</g>
																			</g>
																		</g>
																	</g>
																</g>
															</g>
															<g id="&lt;Group&gt;">
																<g id="&lt;Group&gt;">
																	<g id="&lt;Group&gt;">
																		<g id="&lt;Group&gt;">
																			<g id="&lt;Group&gt;">
																				<g id="&lt;Group&gt;">
																					<g id="&lt;Group&gt;">
																						<g id="&lt;Group&gt;">
																							<g id="&lt;Group&gt;">
																								<path id="&lt;Path&gt;" class="s7" d="m253.4 255.3c0.7-0.6 2-1.1 3.5-1.1 1.5 0 2.8 0.5 3.6 1.1 0.7 0.6 1 1.1 0.9 1.2-0.3 0.3-2.1-0.9-4.5-0.9-2.4 0-4.1 1.2-4.4 1-0.1-0.2 0.1-0.7 0.9-1.3z"/>
																							</g>
																						</g>
																					</g>
																				</g>
																			</g>
																		</g>
																	</g>
																</g>
															</g>
														</g>
														<g id="&lt;Group&gt;">
															<g id="&lt;Group&gt;">
																<g id="&lt;Group&gt;">
																	<g id="&lt;Group&gt;">
																		<g id="&lt;Group&gt;">
																			<g id="&lt;Group&gt;">
																				<g id="&lt;Group&gt;">
																					<g id="&lt;Group&gt;">
																						<g id="&lt;Group&gt;">
																							<path id="&lt;Path&gt;" class="s7" d="m239.6 274.5c-0.3 0-0.6 0-1-0.1-0.4-0.1-0.9-0.4-1-0.9-0.4-0.9 0-1.7 0.3-2.4q0.8-2.3 1.8-4.8c2.5-6.7 4.8-12.1 5.1-12 0.3 0.1-1.6 5.6-4.2 12.4q-0.9 2.4-1.8 4.7c-0.3 0.7-0.6 1.4-0.4 1.8 0.1 0.4 0.7 0.6 1.3 0.6 2.4 0.4 3.9 0.6 3.9 0.8 0 0.1-1.5 0.1-4-0.1z"/>
																						</g>
																					</g>
																				</g>
																			</g>
																		</g>
																	</g>
																</g>
															</g>
														</g>
														<g id="&lt;Group&gt;">
															<g id="&lt;Group&gt;">
																<g id="&lt;Group&gt;">
																	<g id="&lt;Group&gt;">
																		<g id="&lt;Group&gt;">
																			<g id="&lt;Group&gt;">
																				<g id="&lt;Group&gt;">
																					<g id="&lt;Group&gt;">
																						<path id="&lt;Path&gt;" class="s12" d="m241.9 303.3c0 0 11.8 0.8 23.6-6.2 0 0-6 12.1-23.6 10.4z"/>
																					</g>
																				</g>
																			</g>
																		</g>
																	</g>
																</g>
															</g>
														</g>
													</g>
												</g>
											</g>
											<g id="&lt;Group&gt;">
												<g id="&lt;Group&gt;">
													<g id="&lt;Group&gt;">
														<g id="&lt;Group&gt;">
															<g id="&lt;Group&gt;">
																<g id="&lt;Group&gt;">
																	<g id="&lt;Group&gt;">
																		<g id="&lt;Group&gt;">
																			<path id="&lt;Path&gt;" class="s7" d="m252.9 248.2c1-0.4 2.6-0.7 4.3-0.5 1.7 0.2 3.2 0.8 4.1 1.4 1 0.7 1.4 1.3 1.2 1.6-0.4 0.6-2.7-0.3-5.6-0.6-2.8-0.3-5.2 0-5.5-0.7-0.1-0.3 0.5-0.8 1.5-1.2z"/>
																		</g>
																	</g>
																</g>
															</g>
														</g>
													</g>
												</g>
											</g>
											<g id="&lt;Group&gt;">
												<g id="&lt;Group&gt;">
													<g id="&lt;Group&gt;">
														<g id="&lt;Group&gt;">
															<g id="&lt;Group&gt;">
																<g id="&lt;Group&gt;">
																	<g id="&lt;Group&gt;">
																		<g id="&lt;Group&gt;">
																			<path id="&lt;Path&gt;" class="s7" d="m230.3 247.6c0.7-0.6 1.9-1.1 3.3-1.1 1.3 0 2.6 0.4 3.3 0.9 0.7 0.5 1 1.1 0.8 1.4-0.4 0.6-2.1 0.1-4.1 0.2-2 0-3.7 0.6-4.1 0-0.2-0.3 0.1-0.8 0.8-1.4z"/>
																		</g>
																	</g>
																</g>
															</g>
														</g>
													</g>
												</g>
											</g>
										</g>
									</g>
								</g>
							</g>
						</g>
					</g>
				</g>
				<g id="&lt;Group&gt;">
					<g id="&lt;Group&gt;">
						<g id="&lt;Group&gt;">
							<g id="&lt;Group&gt;">
								<g id="&lt;Group&gt;">
									<g id="&lt;Group&gt;">
										<g id="&lt;Group&gt;">
											<g id="&lt;Group&gt;">
												<g id="&lt;Group&gt;">
													<g id="&lt;Group&gt;">
														<g id="&lt;Group&gt;">
															<path id="&lt;Path&gt;" class="s12" d="m244.7 280.2c0.8-1.1 2.2-1.7 3.6-1.6 1 0.2 2 0.6 2.6 1.4 0.6 0.8 0.7 2 0.2 2.7-0.6 0.9-1.9 1.1-3 0.8-1.1-0.3-2-1-2.9-1.8-0.2-0.2-0.5-0.4-0.6-0.6-0.2-0.3-0.2-0.7 0-0.9"/>
														</g>
													</g>
												</g>
											</g>
										</g>
									</g>
								</g>
							</g>
						</g>
					</g>
					<g id="&lt;Group&gt;">
						<g id="&lt;Group&gt;">
							<g id="&lt;Group&gt;">
								<g id="&lt;Group&gt;">
									<g id="&lt;Group&gt;">
										<g id="&lt;Group&gt;">
											<g id="&lt;Group&gt;">
												<g id="&lt;Group&gt;">
													<g id="&lt;Group&gt;">
														<g id="&lt;Group&gt;">
															<g id="&lt;Group&gt;">
																<path id="&lt;Path&gt;" class="s7" d="m250.7 277.9c-0.1 1-0.6 2.4-1.9 3.5-1.3 1.1-2.9 1.4-4 1.4-1.1-0.1-1.7-0.4-1.7-0.5 0.1-0.4 2.7-0.1 4.8-1.9 2.1-1.7 2.1-4.2 2.5-4.1 0.2 0 0.4 0.6 0.3 1.6z"/>
															</g>
														</g>
													</g>
												</g>
											</g>
										</g>
									</g>
								</g>
							</g>
						</g>
					</g>
				</g>
				<g id="&lt;Group&gt;">
					<g id="&lt;Group&gt;">
						<path id="&lt;Path&gt;" class="s7" d="m243.5 221.6l23.1 4.3 19.3 8.7c0 0-0.8 14.8-0.2 21.9 0.7 7.2-1.1 8.1-1.1 8.1-5.5-1.2-10-6.1-10.8-11.7-3.7-0.7-7.2-2.9-9.5-6-0.6-0.6-1.1-1.4-1.8-1.8-0.8-0.3-1.6-0.1-2.5-0.1-5.9 0.7-12.1-2-15.8-6.8-5.5 1.1-14.3 0.2-15.1-5.4-1.5-9.4 14.4-11.2 14.4-11.2z"/>
					</g>
				</g>
				<g id="&lt;Group&gt;">
					<g id="&lt;Group&gt;">
						<g id="&lt;Group&gt;">
							<path id="&lt;Path&gt;" class="s11" d="m292.9 262.3c-0.2 0 0.1-2-1.2-5-0.6-1.5-1.7-3.2-3.4-4.6-1.7-1.4-4.1-2.6-6.8-2.9h-0.4v-0.3c-0.7-2.8-2.1-5.9-4.6-8.1-2.4-2.2-6.4-3.2-9.6-1.6l-0.6 0.2-0.2-0.5q-0.1-0.3-0.2-0.7c-1.8-5.1-6.8-8.3-11.3-8.8-1.2-0.1-2.3 0-3.4 0.1-1.2 0.2-2.4 0.3-3.5-0.1-1.2-0.4-2-1.3-2.6-2-0.7-0.8-1.3-1.4-2-2-2.9-2-6.1-2-8-1.5-1.9 0.5-2.8 1.3-2.9 1.2q0-0.1 0.7-0.6c0.4-0.3 1.1-0.7 2.1-1 1.9-0.6 5.3-0.8 8.5 1.3 1.7 1.1 2.6 3.1 4.4 3.7 1.9 0.6 4.2-0.3 6.8 0 4.9 0.4 10.2 3.9 12.2 9.4q0.1 0.3 0.2 0.7l-0.7-0.3c3.8-1.9 8.1-0.6 10.8 1.8 2.7 2.4 4 5.7 4.7 8.6l-0.4-0.4c3 0.4 5.5 1.7 7.2 3.3 1.8 1.5 2.9 3.4 3.5 4.9 0.6 1.6 0.7 2.9 0.8 3.8 0 0.9-0.1 1.4-0.1 1.4z"/>
						</g>
					</g>
				</g>
				<g id="&lt;Group&gt;">
					<g id="&lt;Group&gt;">
						<g id="&lt;Group&gt;">
							<path id="&lt;Path&gt;" class="s11" d="m262.5 243.6c0 0.1-0.5 0.3-1.5 0.5-1 0.2-2.4 0.4-4.2 0.2-3.5-0.2-8.5-2-12-6.4l0.7 0.1q-0.3 0.2-0.6 0.3c-2.7 1.1-5.5 1.2-7.9 0.7-2.4-0.5-4.4-1.7-5.8-2.9-1.3-1.3-2.2-2.5-2.6-3.4-0.5-0.9-0.6-1.5-0.6-1.5 0.2-0.1 1 2.1 3.7 4.3 1.4 1.1 3.2 2.2 5.5 2.6 2.2 0.4 4.9 0.3 7.3-0.8q0.3-0.1 0.5-0.2l0.4-0.2 0.3 0.3c3.1 4.2 7.9 6 11.2 6.4 3.4 0.5 5.5-0.2 5.6 0z"/>
						</g>
					</g>
				</g>
				<g id="&lt;Group&gt;">
					<g id="&lt;Group&gt;">
						<g id="&lt;Group&gt;">
							<path id="&lt;Path&gt;" class="s11" d="m252.5 233.2c0 0.3-2.5 0.1-5.5 0.8-3 0.7-5.2 2-5.4 1.7-0.2-0.2 1.9-2 5.1-2.7 3.3-0.8 5.9 0 5.8 0.2z"/>
						</g>
					</g>
				</g>
				<g id="&lt;Group&gt;">
					<g id="&lt;Group&gt;">
						<g id="&lt;Group&gt;">
							<path id="&lt;Path&gt;" class="s11" d="m245.9 232.6c-0.3 0.2-1.2-0.5-2.3-1.3-1.1-0.9-2.1-1.5-2-1.8 0.1-0.2 1.4 0 2.6 0.9 1.3 0.9 1.9 2.1 1.7 2.2z"/>
						</g>
					</g>
				</g>
				<g id="&lt;Group&gt;">
					<g id="&lt;Group&gt;">
						<g id="&lt;Group&gt;">
							<path id="&lt;Path&gt;" class="s11" d="m273.2 242.9c-0.1 0.3-2.3-0.5-5.1-0.4-2.8 0.1-5 0.9-5.1 0.7-0.2-0.3 2-1.6 5.1-1.7 3-0.1 5.3 1.1 5.1 1.4z"/>
						</g>
					</g>
				</g>
				<g id="&lt;Group&gt;">
					<g id="&lt;Group&gt;">
						<g id="&lt;Group&gt;">
							<path id="&lt;Path&gt;" class="s11" d="m278.1 252.3c0 0.3-3.3 0.4-7.1-0.9-3.9-1.4-6.4-3.6-6.2-3.8 0.2-0.2 2.9 1.5 6.5 2.8 3.7 1.3 6.8 1.6 6.8 1.9z"/>
						</g>
					</g>
				</g>
				<g id="&lt;Group&gt;">
					<g id="&lt;Group&gt;">
						<g id="&lt;Group&gt;">
							<path id="&lt;Path&gt;" class="s11" d="m290.2 259.1c-0.3 0.2-1.9-1.7-4.6-2.6-2.7-1-5.2-0.6-5.2-0.9-0.1-0.3 2.5-1.2 5.5-0.1 3.1 1.1 4.5 3.4 4.3 3.6z"/>
						</g>
					</g>
				</g>
				<g id="&lt;Group&gt;">
					<g id="&lt;Group&gt;">
						<g id="&lt;Group&gt;">
							<path id="&lt;Path&gt;" class="s11" d="m289.8 233.8c-0.1 0-0.3-0.6-0.9-1.6-0.6-0.9-1.8-2.1-3.6-3.1-3.5-1.9-9.1-3.4-15.3-3.4-6.3-0.1-11.9 1.1-15.9 2.1-4 1-6.4 1.7-6.4 1.6-0.1-0.1 0.5-0.4 1.6-0.8 1.1-0.4 2.7-1 4.6-1.5 4-1.2 9.7-2.5 16.1-2.5 6.4 0.1 12.1 1.7 15.7 3.9 1.8 1.1 3 2.5 3.5 3.5 0.6 1.1 0.7 1.7 0.6 1.8z"/>
						</g>
					</g>
				</g>
				<g id="&lt;Group&gt;">
					<g id="&lt;Group&gt;">
						<g id="&lt;Group&gt;">
							<path id="&lt;Path&gt;" class="s11" d="m291.2 243.3c-0.2 0.1-0.6-2.2-2.7-5-2-2.8-6-5.9-11.1-7.4-5.1-1.4-10.1-1.2-13.6-1-3.5 0.3-5.7 0.6-5.7 0.4 0-0.1 2.1-0.7 5.7-1.1 3.5-0.5 8.6-0.8 13.9 0.7 5.4 1.6 9.5 5 11.4 8 1 1.5 1.6 2.9 1.9 3.9 0.2 0.9 0.3 1.5 0.2 1.5z"/>
						</g>
					</g>
				</g>
				<g id="&lt;Group&gt;">
					<g id="&lt;Group&gt;">
						<g id="&lt;Group&gt;">
							<path id="&lt;Path&gt;" class="s11" d="m225.3 250.7c-0.1 0.1-1.6-0.5-3.3-2.5-1.6-1.9-3.1-5.5-2.1-9.5 1.1-3.9 4.2-6.3 6.6-7.1 2.4-0.9 4.1-0.6 4-0.5 0 0.2-1.5 0.1-3.7 1.1-2.2 1-4.9 3.3-5.9 6.8-0.9 3.5 0.3 6.9 1.7 8.8 1.4 2 2.8 2.7 2.7 2.9z"/>
						</g>
					</g>
				</g>
				<g id="&lt;Group&gt;">
					<g id="&lt;Group&gt;">
						<g id="&lt;Group&gt;">
							<path id="&lt;Path&gt;" class="s7" d="m297.1 278.3c0-0.1 1.8-1 4.4-2.7 1.3-0.9 2.7-2.1 3.8-3.9 1-1.7 1.5-4 0.6-6.1-0.8-2.2-2.4-3.9-4.3-4.7-1.8-0.8-3.7-0.9-5.2-0.6-3.1 0.5-4.7 1.9-4.8 1.7 0 0 0.3-0.4 1.1-0.9 0.7-0.5 1.9-1.2 3.6-1.5 1.6-0.4 3.6-0.4 5.7 0.4 2.1 0.9 4 2.7 4.9 5.2 1 2.4 0.4 5.2-0.8 7-1.2 1.9-2.8 3.1-4.2 4-1.4 0.8-2.6 1.4-3.4 1.7-0.9 0.3-1.3 0.5-1.4 0.4z"/>
						</g>
					</g>
				</g>
				<g id="&lt;Group&gt;">
					<g id="&lt;Group&gt;">
						<g id="&lt;Group&gt;">
							<path id="&lt;Path&gt;" class="s7" d="m298 278.5c0-0.1 0.3 0.5 0.7 1.5 0.4 1.1 0.9 2.6 1.4 4.5 0.4 1.9 0.9 4.3 0.7 7-0.2 2.6-0.9 5.6-2.8 8.1-2 2.5-4.8 4-7.6 4.2-2.8 0.3-5.2-1.1-6.5-2.6-1.3-1.6-1.8-3.3-1.8-4.4 0-1.2 0.3-1.7 0.3-1.7 0.1 0 0 0.6 0.1 1.7 0.1 1 0.7 2.5 2 3.9 1.2 1.3 3.4 2.4 5.8 2.2 2.5-0.3 5.1-1.7 6.8-3.9 1.8-2.3 2.5-5.1 2.7-7.6 0.2-2.5-0.1-4.8-0.4-6.7-0.8-3.9-1.6-6.2-1.4-6.2z"/>
						</g>
					</g>
				</g>
			</g>
			<g id="&lt;Group&gt;">
				<g id="&lt;Group&gt;">
					<g id="&lt;Group&gt;">
						<g id="&lt;Group&gt;">
							<path id="&lt;Path&gt;" class="s4" d="m229.6 441.9l-78.1 21.7-5.2-28.4 47.3-11.5c0 0 4.2-40.5 5.7-59.9 1.5-19.4 13.9-27.2 13.9-27.2z"/>
						</g>
					</g>
					<g id="&lt;Group&gt;">
						<g id="&lt;Group&gt;">
							<path id="&lt;Path&gt;" class="s4" d="m305.5 372.6l1.7 84.7c0.1 6.3-5.3 11.4-11.6 10.8l-76.5-6.8-6.6-95.5 0.7-29.2 27.4-9.5 1.3-15.6 37.6-3.3 1.4 14.5c0 0 27.1 5 31.5 6.9 4.4 1.8-6.9 43-6.9 43z"/>
						</g>
					</g>
					<g id="&lt;Group&gt;">
						<g id="&lt;Group&gt;">
							<path id="&lt;Path&gt;" class="s4" d="m312.4 329.6c0 0 15.6 5.9 16.9 29.4 0.9 15.5 6.3 41.9 9.9 58.2 2 9.1 1.5 19.3-3.5 27.2-7.3 8.5-17.3 15.9-30.1 16.9h-32.2l-14-22.3 37.1-10.8 8.8-53.6z"/>
						</g>
					</g>
					<g id="&lt;Group&gt;">
						<g id="&lt;Group&gt;">
							<g id="&lt;Group&gt;">
								<path id="&lt;Path&gt;" class="s7" d="m319.1 441c-0.1 0.1-0.2-0.9-0.5-2.5-0.3-1.7-0.8-4.1-1.9-6.8-1.2-2.7-3.2-5.8-6.4-8-1.6-1.1-3.5-2-5.5-2.3-2.1-0.3-4.3-0.1-6.5 0.3-8.9 2-17 4.2-22.6 6.2-2.8 0.9-5 1.7-6.8 2.3-1.6 0.5-2.5 0.8-2.5 0.7 0 0 0.8-0.4 2.4-1 1.7-0.7 4-1.6 6.7-2.6 5.6-2.2 13.6-4.5 22.6-6.5 2.3-0.4 4.6-0.6 6.8-0.3 2.2 0.4 4.2 1.3 5.9 2.5 3.4 2.4 5.3 5.6 6.4 8.5 1.2 2.8 1.6 5.2 1.8 6.9 0.2 1.7 0.1 2.6 0.1 2.6z"/>
							</g>
						</g>
					</g>
					<g id="&lt;Group&gt;">
						<g id="&lt;Group&gt;">
							<g id="&lt;Group&gt;">
								<path id="&lt;Path&gt;" class="s7" d="m298.1 374.7c0.1 0 0.2 0.6 0.3 1.8 0.1 1.1 0.2 2.7 0.4 4.7 0.1 4.3 0.4 9.7 0.7 15.7 0.3 6.1 0.9 11.6 1.7 15.6 0.8 3.9 1.6 6.2 1.4 6.3-0.1 0-0.3-0.6-0.7-1.6q-0.3-0.8-0.6-2-0.4-1.1-0.7-2.6c-1-3.9-1.7-9.5-2-15.6-0.4-6.2-0.4-11.7-0.5-15.8q0-2.7 0-4.7c0-1.1 0-1.8 0-1.8z"/>
							</g>
						</g>
					</g>
					<g id="&lt;Group&gt;">
						<g id="&lt;Group&gt;">
							<g id="&lt;Group&gt;">
								<path id="&lt;Path&gt;" class="s7" d="m331.2 449.3c0 0-0.6 0.6-1.8 1.7-1.2 1.1-3 2.5-5.5 4-4.8 3.1-12.4 6.2-21.2 6.7-4.4 0.3-8.6-0.1-12.4-0.9-3.7-0.8-6.9-2.1-9.6-2.8-2.8-0.7-5.1-0.7-6.7-0.9-1.6-0.2-2.4-0.4-2.4-0.5 0-0.1 0.9 0.1 2.5 0.1 1.5 0.2 3.9 0.1 6.7 0.7 2.9 0.6 6 1.9 9.7 2.6 3.7 0.7 7.8 1.1 12.1 0.8 8.7-0.5 16.1-3.4 21-6.3 4.9-2.8 7.5-5.4 7.6-5.2z"/>
							</g>
						</g>
					</g>
					<g id="&lt;Group&gt;">
						<g id="&lt;Group&gt;">
							<g id="&lt;Group&gt;">
								<path id="&lt;Path&gt;" class="s7" d="m219.7 354.9c0 0 0.2 0.8 0.2 2.3 0.1 1.4 0 3.6-0.3 6.2-0.3 2.6-0.9 5.7-1.7 9-0.7 3.4-1.6 7.1-2.1 11-0.4 4-0.4 7.7 0.3 11.1 0.7 3.3 2.1 6.1 3.6 8.2 3 4.2 6.4 5.2 6.2 5.4q0 0-0.6-0.2-0.5-0.1-1.5-0.7c-1.3-0.7-3.1-2-4.7-4.1-1.7-2.1-3.1-5-3.9-8.4-0.8-3.5-0.9-7.4-0.4-11.4 0.5-4 1.4-7.7 2.2-11.1 0.8-3.3 1.4-6.3 1.9-8.9 0.8-5.1 0.6-8.4 0.8-8.4z"/>
							</g>
						</g>
					</g>
					<g id="&lt;Group&gt;">
						<g id="&lt;Group&gt;">
							<g id="&lt;Group&gt;">
								<path id="&lt;Path&gt;" class="s7" d="m304.9 327.9c0.1 0.2-1.5 1.1-3.6 3-2.2 1.9-4.8 4.9-6.5 9-1.7 4.1-1.9 8.1-1.7 11 0.2 2.8 0.7 4.6 0.5 4.6-0.1 0.1-0.9-1.6-1.3-4.6-0.4-2.9-0.2-7.1 1.5-11.4 1.8-4.2 4.6-7.4 7-9.2 2.3-1.8 4.1-2.5 4.1-2.4z"/>
							</g>
						</g>
					</g>
				</g>
				<g id="&lt;Group&gt;">
					<g id="&lt;Group&gt;">
						<g id="&lt;Group&gt;">
							<path id="&lt;Path&gt;" class="s7" d="m246.1 328.4c-0.3 0-0.9-3.7-1.1-8.4-0.2-4.6 0.2-8.4 0.5-8.4 0.3 0 0.4 3.8 0.5 8.4 0.2 4.6 0.4 8.4 0.1 8.4z"/>
						</g>
					</g>
				</g>
				<g id="&lt;Group&gt;">
					<g id="&lt;Group&gt;">
						<g id="&lt;Group&gt;">
							<path id="&lt;Path&gt;" class="s7" d="m256.8 327.1c-0.3 0.1-1.2-3.5-1.7-8.1-0.5-4.5-0.3-8.2-0.1-8.2 0.3 0 0.7 3.6 1.1 8.1 0.5 4.5 1 8.1 0.7 8.2z"/>
						</g>
					</g>
				</g>
				<g id="&lt;Group&gt;">
					<g id="&lt;Group&gt;">
						<g id="&lt;Group&gt;">
							<path id="&lt;Path&gt;" class="s7" d="m268.4 326.3c-0.3 0-1.2-3.8-1.7-8.7-0.5-4.8-0.3-8.8 0-8.8 0.3 0 0.6 3.9 1.1 8.7 0.4 4.8 0.9 8.7 0.6 8.8z"/>
						</g>
					</g>
				</g>
				<g id="&lt;Group&gt;">
					<g id="&lt;Group&gt;">
						<g id="&lt;Group&gt;">
							<path id="&lt;Path&gt;" class="s7" d="m279.6 404.5c0 0.1-0.4 0.3-1.3 0.7-0.8 0.4-2.1 0.8-3.7 1.1-3.1 0.6-7.9 0.6-12.5-1.6-4.6-2.2-7.6-5.9-9.1-8.8-0.8-1.4-1.3-2.7-1.5-3.6-0.2-0.8-0.3-1.3-0.2-1.4 0.2 0 0.7 1.9 2.3 4.6 1.6 2.7 4.6 6.1 9 8.2 4.3 2.1 8.8 2.3 11.9 1.9 3.2-0.4 5-1.3 5.1-1.1z"/>
						</g>
					</g>
				</g>
				<g id="&lt;Group&gt;">
					<g id="&lt;Group&gt;">
						<g id="&lt;Group&gt;">
							<path id="&lt;Path&gt;" class="s6" d="m294.5 337.5q0 0-0.8-0.3-1-0.4-2.4-1c-2.1-0.9-5.2-2.2-9.1-3.3-3.9-1.2-8.7-2.2-14-1.6-5.4 0.5-11 2.6-16.6 5.2-5.6 2.6-10.9 5.4-16.1 7-5.1 1.7-10.1 2.3-14.1 1.8-4.1-0.5-7.2-1.9-9.1-3.2-1.9-1.2-2.8-2.2-2.8-2.2q0 0 0.7 0.6c0.5 0.4 1.2 0.9 2.2 1.5 1.9 1.2 5 2.5 9 3 4 0.4 8.9-0.1 14-1.8 5.1-1.7 10.4-4.4 16-7.1 5.7-2.6 11.3-4.7 16.7-5.2 5.4-0.6 10.3 0.5 14.2 1.7 3.9 1.2 6.9 2.5 9 3.4q1.4 0.7 2.4 1.1 0.8 0.4 0.8 0.4z"/>
						</g>
					</g>
				</g>
				<g id="&lt;Group&gt;">
					<g id="&lt;Group&gt;">
						<g id="&lt;Group&gt;">
							<path id="&lt;Path&gt;" class="s6" d="m328.4 348q0 0-0.4 0.2-0.4 0.2-1 0.4c-0.8 0.4-2.1 0.9-3.7 1.4-3.1 1-7.7 2-12.8 2.1-5.1 0.1-9.7-0.7-12.9-1.5-1.6-0.5-2.9-0.9-3.7-1.2q-0.6-0.2-1-0.4-0.4-0.2-0.4-0.2 0 0 0.4 0.1 0.5 0.1 1 0.3c0.9 0.3 2.2 0.7 3.8 1.1 3.2 0.8 7.8 1.5 12.8 1.4 5.1-0.1 9.6-1.1 12.8-2 1.6-0.5 2.8-0.9 3.7-1.3q0.5-0.1 1-0.3 0.3-0.1 0.4-0.1z"/>
						</g>
					</g>
				</g>
				<g id="&lt;Group&gt;">
					<g id="&lt;Group&gt;">
						<g id="&lt;Group&gt;">
							<path id="&lt;Path&gt;" class="s6" d="m330.4 375.9c0 0-0.5-0.1-1.4-0.2-0.9-0.1-2.2-0.2-3.7-0.3-3.2-0.1-7.6 0.3-12.1 1.8-4.6 1.5-8.4 3.8-10.9 5.7-1.2 1-2.2 1.8-2.8 2.5-0.6 0.6-1 0.9-1 0.9-0.1 0 0.3-0.4 0.9-1 0.6-0.7 1.5-1.6 2.7-2.6 2.5-2 6.3-4.4 10.9-5.9 4.7-1.5 9.1-1.8 12.3-1.7 1.6 0.1 2.9 0.3 3.7 0.5 0.9 0.1 1.4 0.2 1.4 0.3z"/>
						</g>
					</g>
				</g>
				<g id="&lt;Group&gt;">
					<g id="&lt;Group&gt;">
						<g id="&lt;Group&gt;">
							<path id="&lt;Path&gt;" class="s6" d="m339.5 425.2c-0.1 0 0-0.6-0.2-1.6-0.3-1-1-2.4-2.5-3.6-1.4-1.1-3.6-1.8-6.1-1.9-2.4-0.1-5.2 0.2-8 0.1-5.8-0.2-11-1.3-14.6-2.4-1.8-0.5-3.2-1-4.2-1.4q-0.6-0.3-1.1-0.5-0.4-0.2-0.4-0.2 0 0 0.4 0.1 0.6 0.2 1.2 0.4c1 0.4 2.4 0.9 4.2 1.4 3.6 1 8.7 2 14.5 2.1 2.8 0.1 5.5-0.2 8.1 0 2.5 0.1 4.7 0.8 6.2 2.1 1.5 1.2 2.2 2.7 2.5 3.7 0.1 1.1 0 1.7 0 1.7z"/>
						</g>
					</g>
				</g>
				<g id="&lt;Group&gt;">
					<g id="&lt;Group&gt;">
						<g id="&lt;Group&gt;">
							<path id="&lt;Path&gt;" class="s6" d="m305.4 460.3c0 0 0.1-0.6 0.3-1.7 0.2-1.1 0.5-2.6 0.6-4.6 0.2-3.9-0.3-9.4-2.6-14.8-2.4-5.5-6.2-9.6-9.2-12.1-1.5-1.2-2.8-2.1-3.7-2.7-0.9-0.5-1.5-0.8-1.5-0.9 0 0 2.3 1 5.4 3.4 3.1 2.4 6.9 6.5 9.3 12.1 2.5 5.5 2.9 11.1 2.6 15-0.3 4-1.2 6.3-1.2 6.3z"/>
						</g>
					</g>
				</g>
				<g id="&lt;Group&gt;">
					<g id="&lt;Group&gt;">
						<g id="&lt;Group&gt;">
							<path id="&lt;Path&gt;" class="s6" d="m295.5 377.7c-0.1 0.1-0.4-1.1-1.6-2.8-1.2-1.7-3.4-4-6.7-5.6-3.4-1.7-7.8-2.8-12.8-2.7-4.9 0.2-10.2 1.7-15.6 3.6-5.4 1.9-10.5 4-15.4 5.2-4.8 1.2-9.4 1.5-13.2 1.2-3.7-0.4-6.7-1.5-8.5-2.5q-1.4-0.8-2.1-1.3-0.6-0.5-0.6-0.5c0-0.1 0.9 0.7 2.8 1.6 1.8 1 4.7 2 8.5 2.4 3.7 0.3 8.2-0.1 13-1.3 4.8-1.2 9.9-3.3 15.3-5.2 5.4-1.9 10.8-3.4 15.8-3.5 5-0.2 9.5 1 12.9 2.7 3.4 1.7 5.6 4 6.7 5.8q0.9 1.3 1.2 2.1 0.3 0.8 0.3 0.8z"/>
						</g>
					</g>
				</g>
				<g id="&lt;Group&gt;">
					<g id="&lt;Group&gt;">
						<g id="&lt;Group&gt;">
							<path id="&lt;Path&gt;" class="s6" d="m224.4 407.2c0 0.1-0.6 0.5-1.4 0.9-0.9 0.5-1.6 0.7-1.6 0.6-0.1-0.1 0.5-0.5 1.4-0.9 0.8-0.4 1.5-0.7 1.6-0.6z"/>
						</g>
					</g>
				</g>
				<g id="&lt;Group&gt;">
					<g id="&lt;Group&gt;">
						<g id="&lt;Group&gt;">
							<path id="&lt;Path&gt;" class="s6" d="m270.6 407.4c0 0-2.3 0.9-6.2 1.1-3.8 0.3-9.2-0.4-14.9-1.4-5.8-1-11.1-1.4-14.9-0.9-1.9 0.3-3.5 0.7-4.5 1-1 0.4-1.5 0.6-1.5 0.6 0 0 2.1-1.3 5.9-1.9 3.8-0.6 9.2-0.2 15 0.8 5.8 1 11.1 1.7 14.9 1.5 1.9 0 3.5-0.3 4.5-0.5 1.1-0.2 1.7-0.3 1.7-0.3z"/>
						</g>
					</g>
				</g>
				<g id="&lt;Group&gt;">
					<g id="&lt;Group&gt;">
						<g id="&lt;Group&gt;">
							<path id="&lt;Path&gt;" class="s6" d="m299.3 405.6c0 0.1-1.3-0.6-3.5-1.3-2.1-0.8-5.3-1.5-8.8-1.6-3.5 0-6.7 0.6-8.9 1.2-2.2 0.7-3.5 1.3-3.5 1.3 0-0.1 0.3-0.2 0.9-0.5 0.6-0.3 1.4-0.7 2.5-1 2.2-0.8 5.4-1.5 9-1.4 3.6 0.1 6.8 0.9 8.9 1.7 1.1 0.4 2 0.8 2.6 1.1 0.5 0.3 0.8 0.5 0.8 0.5z"/>
						</g>
					</g>
				</g>
				<g id="&lt;Group&gt;">
					<g id="&lt;Group&gt;">
						<g id="&lt;Group&gt;">
							<path id="&lt;Path&gt;" class="s6" d="m264.3 431.1q0 0-0.4 0.2-0.5 0.2-1 0.5c-0.9 0.4-2.3 1-4 1.6-3.4 1.3-8.3 2.5-13.9 2.9-5.5 0.3-10.5-0.3-14.1-1.2-1.7-0.4-3.2-0.8-4.1-1.1q-0.6-0.2-1.1-0.4-0.4-0.1-0.4-0.2 0 0 0.4 0.1 0.5 0.2 1.1 0.3c1 0.3 2.4 0.7 4.2 1.1 3.5 0.7 8.5 1.3 14 1 5.5-0.4 10.4-1.6 13.8-2.7 1.7-0.6 3.1-1.1 4-1.6q0.6-0.2 1.1-0.4 0.3-0.2 0.4-0.1z"/>
						</g>
					</g>
				</g>
				<g id="&lt;Group&gt;">
					<g id="&lt;Group&gt;">
						<g id="&lt;Group&gt;">
							<path id="&lt;Path&gt;" class="s6" d="m219.2 367.7c0 0.1-1-0.5-2.8-1.1-1.7-0.6-4.3-1.1-7.1-0.9-2.8 0.1-5.3 0.9-7 1.7-1.7 0.8-2.6 1.6-2.6 1.5q0 0 0.6-0.5c0.4-0.4 1.1-0.8 1.9-1.2 1.6-0.9 4.2-1.8 7.1-2 2.9-0.1 5.5 0.4 7.2 1.1 0.9 0.4 1.6 0.7 2 1q0.7 0.4 0.7 0.4z"/>
						</g>
					</g>
				</g>
				<g id="&lt;Group&gt;" style="opacity: .4">
					<g id="&lt;Group&gt;">
						<g id="&lt;Group&gt;">
							<path id="&lt;Path&gt;" class="s5" d="m252.4 393.5c1.5 4.1 5.3 7.7 9.5 10 4.2 2.2 9.3 3.1 14.2 2.4 1.1-0.1 2.4-0.3 3.1 0.4 0.9 1-0.1 2.4-1.2 3.2-5.5 4.1-14.2 4.4-20.1 0.7-5.9-3.6-8.3-10.9-5.6-16.7"/>
						</g>
					</g>
				</g>
			</g>
			<g id="&lt;Group&gt;">
				<g id="&lt;Group&gt;">
					<g id="&lt;Group&gt;">
						<path id="&lt;Path&gt;" class="s7" d="m206.8 451.8l45.6-0.9-25.4 12.2z"/>
					</g>
				</g>
				<g id="&lt;Group&gt;">
					<g id="&lt;Group&gt;">
						<g id="&lt;Group&gt;">
							<g id="&lt;Group&gt;">
								<path id="&lt;Path&gt;" class="s11" d="m116.9 380.2l93.7-5.2c2.5-0.2 5.8 2.2 6 5.8l13.6 80.3 21.7-9.8 0.4 3.5-25 12.3-91.1 1c-3 0.1-5.6-2-6.2-4.8l-17.6-77.1c-0.7-3 1.4-5.9 4.5-6z"/>
							</g>
						</g>
						<g id="&lt;Group&gt;">
							<g id="&lt;Group&gt;">
								<g id="&lt;Group&gt;">
									<path id="&lt;Path&gt;" class="s10" d="m238 445c0 0 6.2-4.4 7.7-5.6 2-1.4 4.4-2 6.8-1.8l9.6-3.1c4.3-1.5 9.3-0.6 12.5 2.7 6.2 6.3 1.9 13.4 1.9 13.4l-2.1 0.6-7.2 14.5c0 0 0.4 4.9-4.2 7.4-4.7 2.6-9.3-0.1-9.3-0.1-0.5 0.3-1.3 0.4-2.2 0.4-1.7 0-3.2-1.4-3.5-3.1l-0.3-1.6c0 0-1.8 0.8-6.5 0.5-4.6-0.3-4.6-3.5-4.6-3.5l7-5 0.8-11.8c0 0-1.8 1.3-4.5 2.4-3.4 1.2-5.8 4.6-8.7 0.5z"/>
								</g>
							</g>
							<g id="&lt;Group&gt;">
								<g id="&lt;Group&gt;">
									<g id="&lt;Group&gt;">
										<path id="&lt;Path&gt;" class="s12" d="m252.8 458.2c0.1 0 0.3 0.8 0.4 2 0.2 1.2 0.5 3 0 5-0.2 0.9-0.6 1.9-1.3 2.5-0.6 0.6-1.3 1-2 1.2-1.3 0.4-2.1-0.2-2-0.3 0-0.1 0.8 0.2 1.8-0.3 1.1-0.4 2.3-1.6 2.7-3.3 0.4-1.8 0.2-3.5 0.2-4.7 0-1.3 0.1-2 0.2-2.1z"/>
									</g>
								</g>
							</g>
							<g id="&lt;Group&gt;">
								<g id="&lt;Group&gt;">
									<g id="&lt;Group&gt;">
										<path id="&lt;Path&gt;" class="s12" d="m244.4 448.9c0.2 0 0.3 2.7 0 5.9-0.2 3.3-0.5 5.9-0.8 5.9-0.2 0-0.3-2.7 0-5.9 0.2-3.3 0.5-5.9 0.8-5.9z"/>
									</g>
								</g>
							</g>
							<g id="&lt;Group&gt;">
								<g id="&lt;Group&gt;">
									<g id="&lt;Group&gt;">
										<path id="&lt;Path&gt;" class="s12" d="m260.8 461.1c0.1 0 0.3 0.8 0.4 2.3 0.1 1.4 0.2 3.5-1 5.6-1.2 2-3.1 3.1-4.5 3.6-1.3 0.5-2.2 0.6-2.3 0.5 0-0.1 0.8-0.4 2.1-1.1 1.2-0.6 2.9-1.7 3.9-3.5 1.1-1.7 1.1-3.7 1.2-5.1 0-1.4 0.1-2.3 0.2-2.3z"/>
									</g>
								</g>
							</g>
						</g>
					</g>
					<g id="&lt;Group&gt;">
						<g id="&lt;Group&gt;">
							<g id="&lt;Group&gt;">
								<path id="&lt;Path&gt;" class="s7" d="m273.8 456c-0.2-0.1 0.8-1.7 2.2-4.3 0.6-1.3 1.2-3 1.4-4.9 0.2-1.9 0-4.1-0.9-6.1-0.9-2-2.3-3.7-3.8-4.9-1.5-1.2-3.1-1.9-4.5-2.3-2.9-0.8-4.8-0.6-4.8-0.7 0-0.1 0.5-0.2 1.3-0.2 0.9-0.1 2.1 0 3.6 0.3 1.5 0.4 3.3 1 4.9 2.2 1.7 1.3 3.2 3 4.1 5.2 1 2.2 1.1 4.6 0.9 6.6-0.2 2-0.9 3.8-1.7 5.1-0.7 1.3-1.4 2.3-1.9 3-0.5 0.7-0.8 1-0.8 1z"/>
							</g>
						</g>
					</g>
				</g>
				<g id="&lt;Group&gt;">
					<g id="&lt;Group&gt;">
						<path id="&lt;Path&gt;" class="s6" d="m171.4 421.2c0 2.9-2.3 5.1-5.2 5.1-2.8 0-5.1-2.2-5.1-5.1 0-2.8 2.3-5.1 5.1-5.1 2.9 0 5.2 2.3 5.2 5.1z"/>
					</g>
				</g>
			</g>
			<g id="&lt;Group&gt;">
				<g id="&lt;Group&gt;">
					<g id="&lt;Group&gt;">
						<path id="&lt;Path&gt;" class="s7" d="m286.7 259.1c4.9 5.5 6.3 7.3 2.1 21.9-1.3 4.4-8.9 15.3-10.6 19.5-1.6 4.2-1.6 9.8 2 12.5-4.6-1.3-8.1-5.6-8.4-10.3-0.5-8 7-14.6 7.1-22.6 0.1-4.7-2.5-9.1-4.4-13.4-2-4.3-3.3-9.6-0.9-13.7"/>
					</g>
				</g>
				<g id="&lt;Group&gt;">
					<g id="&lt;Group&gt;">
						<g id="&lt;Group&gt;">
							<path id="&lt;Path&gt;" class="s11" d="m287.3 264.4c0 0.1-1.1 0.3-2.8-0.1-1.7-0.3-4-1.3-5.8-3.2-1.9-1.9-2.8-4.3-3.1-5.9-0.3-1.8 0-2.8 0.1-2.8 0.1 0 0.2 1 0.6 2.6 0.5 1.5 1.4 3.6 3.1 5.4 1.7 1.7 3.8 2.7 5.3 3.2 1.6 0.5 2.6 0.6 2.6 0.8z"/>
						</g>
					</g>
				</g>
				<g id="&lt;Group&gt;">
					<g id="&lt;Group&gt;">
						<g id="&lt;Group&gt;">
							<path id="&lt;Path&gt;" class="s11" d="m278.6 308.2q0 0.1-0.5-0.4c-0.3-0.2-0.7-0.7-1.2-1.3-0.8-1.3-1.8-3.5-1.6-6.4 0.1-1.4 0.5-3 1.4-4.4 0.9-1.5 2.2-2.7 3.5-3.9 1.4-1.3 2.6-2.6 3.5-4.3 0.8-1.7 1.3-3.7 1.4-5.7 0-2-0.5-3.9-1.3-5.7-0.9-1.7-2-3.2-3.1-4.7-2.2-2.8-4-5.7-4.9-8.4-1-2.6-1.3-4.9-1.3-6.4 0-1.6 0.3-2.4 0.3-2.4 0.2 0-0.5 3.5 1.7 8.6 1 2.5 2.7 5.2 5 8.1 1.1 1.4 2.2 3 3.2 4.8 0.9 1.8 1.4 4 1.4 6.1 0 2.2-0.6 4.3-1.5 6.2-0.9 1.8-2.4 3.3-3.7 4.5-1.4 1.2-2.6 2.3-3.5 3.6-0.8 1.3-1.3 2.7-1.4 4.1-0.3 2.6 0.5 4.8 1.3 6.1 0.7 1.3 1.4 1.8 1.3 1.9z"/>
						</g>
					</g>
				</g>
				<g id="&lt;Group&gt;">
					<g id="&lt;Group&gt;">
						<g id="&lt;Group&gt;">
							<path id="&lt;Path&gt;" class="s11" d="m289.1 263.9c0 0 0.4 0.3 1 1 0.6 0.7 1.3 1.8 1.9 3.4 1.3 3.1 1.6 7.9-0.1 12.7-1.8 4.7-4.8 8.3-7.1 10.6-2.2 2.3-3.8 3.6-3.9 3.5-0.1-0.1 1.3-1.5 3.4-4 2.1-2.4 4.9-5.9 6.6-10.5 1.7-4.5 1.4-9.1 0.4-12.1-0.9-3-2.4-4.5-2.2-4.6z"/>
						</g>
					</g>
				</g>
			</g>
			<g id="&lt;Group&gt;">
				<g id="&lt;Group&gt;">
					<g id="&lt;Group&gt;">
						<path id="&lt;Path&gt;" class="s7" d="m227.3 467.1q-0.1 0-0.2-0.5-0.1-0.5-0.2-1.4-0.3-2-0.8-5.4c-0.8-4.8-1.8-11.5-3-19.9-1.3-8.4-2.9-18.3-4.9-29.4-1-5.5-2-11.3-3.3-17.3-0.6-2.9-1.4-6-2.1-9-0.4-1.5-1-3-2-4-0.9-1.1-2.4-1.7-3.9-1.9-1.6-0.2-3.1-0.1-4.7 0q-2.4 0.2-4.8 0.3-4.7 0.4-9.3 0.7-9.2 0.5-17.6 1.1c-11.2 0.7-21.3 1.3-29.8 1.8-8.4 0.5-15.2 0.9-20 1.2q-3.5 0.2-5.5 0.2-0.9 0.1-1.4 0.1-0.5 0-0.5 0 0-0.1 0.5-0.1 0.5-0.1 1.4-0.2 2-0.1 5.4-0.4c4.9-0.4 11.7-0.9 20.1-1.5 8.5-0.6 18.6-1.3 29.8-2.1q8.4-0.5 17.5-1.2 4.6-0.3 9.3-0.6 2.4-0.1 4.8-0.3c1.6-0.1 3.2-0.2 4.9 0 1.7 0.2 3.4 0.8 4.6 2.2 1.2 1.3 1.8 2.9 2.2 4.4q1.1 4.6 2.1 9.1c1.2 6 2.3 11.8 3.3 17.3 1.9 11.1 3.4 21.1 4.6 29.5 1.2 8.4 2.1 15.2 2.7 20q0.4 3.4 0.6 5.4 0.1 0.8 0.1 1.4 0.1 0.5 0.1 0.5z"/>
					</g>
				</g>
			</g>
		</g>
	</g>
	<g id="Plant">
		<g id="&lt;Group&gt;">
			<g id="&lt;Group&gt;">
				<g id="&lt;Group&gt;">
					<g id="&lt;Group&gt;">
						<g id="&lt;Group&gt;">
							<path id="&lt;Path&gt;" class="s7" d="m798.5 354.4q0 0 0.2-0.9 0.2-0.9 0.5-2.6c0.5-2.3 1.3-5.6 2.2-9.9 2-8.7 4.8-21.2 8.3-36.7 7.1-31 16.9-73.8 27.8-121.2l0.5-2.1 0.5 2.1c0.2 0.9 0.4 1.8 0.6 2.7 10.8 48.1 20.6 91.6 27.7 123.1 3.5 15.8 6.3 28.5 8.3 37.4 1 4.3 1.7 7.8 2.2 10.1q0.4 1.7 0.6 2.7 0.1 0.9 0.1 0.9 0 0-0.2-0.9-0.3-1-0.7-2.6c-0.5-2.4-1.3-5.8-2.4-10.2-2-8.8-5-21.5-8.6-37.2-7.1-31.5-17-75-28-123.1-0.2-0.9-0.4-1.8-0.6-2.6h1c-11 47.3-20.9 90.1-28.1 121.1-3.6 15.4-6.6 27.9-8.6 36.5-1 4.3-1.8 7.7-2.4 10q-0.4 1.6-0.6 2.5-0.3 0.9-0.3 0.9z"/>
						</g>
					</g>
				</g>
			</g>
			<g id="&lt;Group&gt;">
				<g id="&lt;Group&gt;">
					<g id="&lt;Group&gt;">
						<path id="&lt;Path&gt;" class="s11" d="m798.5 390.4v-30.4h81.1v30.4c0 19.6-15.8 35.4-35.4 35.4h-10.3c-19.6 0-35.4-15.8-35.4-35.4z"/>
					</g>
				</g>
			</g>
			<g id="&lt;Group&gt;">
				<g id="&lt;Group&gt;">
					<g id="&lt;Group&gt;">
						<g id="&lt;Group&gt;">
							<path id="&lt;Path&gt;" class="s7" d="m798.5 360q0 0 0.9 1.3 0.9 1.4 2.5 3.7c2.1 3.4 5.2 8.2 8.9 14 7.5 11.9 17.8 28.2 29.2 46.2q0.1 0.2 0.2 0.4h-0.8c11-18.2 21-34.6 28.3-46.5 3.6-5.9 6.5-10.7 8.6-14.1q1.5-2.3 2.4-3.7 0.9-1.3 0.9-1.3 0.1 0-0.7 1.4-0.8 1.4-2.2 3.9c-2.1 3.4-4.9 8.2-8.4 14.1-7.2 12-17.1 28.5-28.1 46.7l-0.4 0.7-0.4-0.7q-0.1-0.2-0.2-0.3c-11.3-18.1-21.5-34.5-29-46.4-3.6-5.9-6.6-10.7-8.7-14.2q-1.4-2.4-2.3-3.8-0.8-1.4-0.7-1.4z"/>
						</g>
					</g>
				</g>
			</g>
			<g id="&lt;Group&gt;">
				<g id="&lt;Group&gt;">
					<g id="&lt;Group&gt;">
						<path id="&lt;Path&gt;" class="s7" d="m847.1 182.9c0 4.9-4 8.8-8.8 8.8-4.9 0-8.9-3.9-8.9-8.8 0-4.9 4-8.9 8.9-8.9 4.8 0 8.8 4 8.8 8.9z"/>
					</g>
				</g>
			</g>
			<g id="&lt;Group&gt;">
				<g id="&lt;Group&gt;">
					<g id="&lt;Group&gt;">
						<g id="&lt;Group&gt;">
							<path id="&lt;Path&gt;" class="s7" d="m838.3 32c0.2 0 0.5 34.2 0.5 76.3 0 42.1-0.3 76.2-0.5 76.2-0.3 0-0.5-34.1-0.5-76.2 0-42.1 0.2-76.3 0.5-76.3z"/>
						</g>
					</g>
				</g>
			</g>
			<g id="&lt;Group&gt;">
				<g id="&lt;Group&gt;">
					<g id="&lt;Group&gt;">
						<path id="&lt;Path&gt;" class="s7" d="m842.9 429.1c0 2.1-1.7 3.8-3.8 3.8-2.1 0-3.8-1.7-3.8-3.8 0-2.1 1.7-3.8 3.8-3.8 2.1 0 3.8 1.7 3.8 3.8z"/>
					</g>
				</g>
			</g>
			<g id="&lt;Group&gt;">
				<g id="&lt;Group&gt;">
					<g id="&lt;Group&gt;">
						<path id="&lt;Path&gt;" class="s7" d="m840.6 429.4c2.8 3.6 4.7 8 5.3 12.5 0.1 0.8 0.2 1.6-0.3 2.2-0.7 0.9-2.2 0.7-3-0.2-0.8-0.8-1-2-1.2-3.2q-0.1 2-0.6 3.9c-0.1 0.4-0.2 0.8-0.6 0.9-0.4 0.1-0.7-0.2-0.9-0.5-1.2-1.5-1.9-3.5-1.8-5.4q0.3 2.3-0.1 4.6c-0.1 0.7-0.5 1.5-1.2 1.6-0.8 0-1.2-0.9-1.4-1.7-0.5-2.5-1-5.1-0.6-7.6 0.3-2.5 1.6-5 3.8-6.3q-0.3 0.2-0.6 0.3"/>
					</g>
				</g>
			</g>
			<g id="&lt;Group&gt;">
				<g id="&lt;Group&gt;">
					<g id="&lt;Group&gt;">
						<g id="&lt;Group&gt;">
							<path id="&lt;Path&gt;" class="s4" d="m803.6 360c0 0-36.5-42.1-32.4-43.6 4-1.5 36.4 21.8 36.4 21.8 0 0-27.8-62.3-22.2-66.8 5.5-4.6 34.9 55.2 34.9 55.2 0 0-4.6-87.1 0-88.2 4.6-1 21.3 87.1 21.3 87.1 0 0 24.8-80.5 31.9-80.5 7.1 0-7.6 77.5-7.6 77.5 0 0 29.3-49.6 33.9-43 4.6 6.5-20.8 60.2-20.8 60.2 0 0 37-30.9 38.5-26.8 1.6 4-40 47.1-40 47.1z"/>
						</g>
					</g>
				</g>
				<g id="&lt;Group&gt;">
					<g id="&lt;Group&gt;">
						<g id="&lt;Group&gt;">
							<g id="&lt;Group&gt;">
								<path id="&lt;Path&gt;" class="s7" d="m798.5 296.7c0.3-0.1 6.7 13.7 14.4 30.9 7.8 17.3 13.8 31.3 13.6 31.4-0.3 0.1-6.7-13.7-14.5-30.9-7.7-17.3-13.8-31.3-13.5-31.4z"/>
							</g>
						</g>
					</g>
				</g>
				<g id="&lt;Group&gt;">
					<g id="&lt;Group&gt;">
						<g id="&lt;Group&gt;">
							<g id="&lt;Group&gt;">
								<path id="&lt;Path&gt;" class="s7" d="m828 304.4c0.2 0 1.3 12.2 2.4 27.3 1 15.1 1.6 27.4 1.4 27.4-0.3 0-1.4-12.2-2.4-27.3-1.1-15.1-1.7-27.4-1.4-27.4z"/>
							</g>
						</g>
					</g>
				</g>
				<g id="&lt;Group&gt;">
					<g id="&lt;Group&gt;">
						<g id="&lt;Group&gt;">
							<g id="&lt;Group&gt;">
								<path id="&lt;Path&gt;" class="s7" d="m868.6 265.4q0 0-0.2 1-0.3 1.1-0.8 2.8c-0.8 2.5-1.8 5.9-3.1 10.1-2.5 8.6-6 20.5-9.5 33.6-3.5 13.2-6.5 25.2-8.5 33.9-1 4.3-1.8 7.8-2.4 10.4q-0.4 1.6-0.7 2.8-0.2 0.9-0.3 0.9 0 0 0.1-1 0.2-1.1 0.5-2.8c0.5-2.5 1.2-6 2.1-10.4 1.9-8.8 4.7-20.8 8.2-34 3.5-13.2 7.1-25.1 9.8-33.6 1.4-4.3 2.6-7.7 3.4-10q0.6-1.7 1-2.8 0.3-0.9 0.4-0.9z"/>
							</g>
						</g>
					</g>
				</g>
				<g id="&lt;Group&gt;">
					<g id="&lt;Group&gt;">
						<g id="&lt;Group&gt;">
							<g id="&lt;Group&gt;">
								<path id="&lt;Path&gt;" class="s7" d="m886.2 310.3c0.2 0.2-6.9 10.8-15.9 23.7-9 12.9-16.5 23.3-16.8 23.1-0.2-0.1 6.9-10.7 15.9-23.7 9-12.9 16.5-23.2 16.8-23.1z"/>
							</g>
						</g>
					</g>
				</g>
				<g id="&lt;Group&gt;">
					<g id="&lt;Group&gt;">
						<g id="&lt;Group&gt;">
							<g id="&lt;Group&gt;">
								<path id="&lt;Path&gt;" class="s7" d="m815.9 359.1c-0.1 0.1-1.3-0.8-3.2-2.3-1.9-1.5-4.4-3.8-6.9-6.4-2.6-2.6-4.8-5.2-6.3-7.1-1.5-1.9-2.3-3.2-2.2-3.2 0.3-0.2 4.1 4.4 9.2 9.6 5.1 5.3 9.6 9.2 9.4 9.4z"/>
							</g>
						</g>
					</g>
				</g>
				<g id="&lt;Group&gt;">
					<g id="&lt;Group&gt;">
						<g id="&lt;Group&gt;">
							<g id="&lt;Group&gt;">
								<path id="&lt;Path&gt;" class="s7" d="m838 342.4c0.3 0 0.9 3.8 1.3 8.7 0.5 4.8 0.6 8.7 0.3 8.7-0.2 0-0.8-3.8-1.3-8.6-0.4-4.9-0.5-8.8-0.3-8.8z"/>
							</g>
						</g>
					</g>
				</g>
			</g>
			<g id="&lt;Group&gt;">
				<g id="&lt;Group&gt;">
					<g id="&lt;Group&gt;">
						<g id="&lt;Group&gt;">
							<path id="&lt;Path&gt;" class="s2" d="m879.6 378.9c0 0.1-1.1 0.3-3.1 0.7-2 0.3-5 0.8-8.6 1.3-7.3 1-17.4 2.2-28.7 2.6-11.3 0.3-21.5-0.3-28.8-1.2-3.6-0.5-6.6-1-8.6-1.4-2-0.4-3.1-0.7-3.1-0.8 0 0 1.1 0.1 3.2 0.4 2 0.3 4.9 0.7 8.6 1.1 7.3 0.7 17.5 1.2 28.7 0.9 11.2-0.4 21.3-1.5 28.6-2.3 3.5-0.4 6.4-0.7 8.6-1 2.1-0.2 3.2-0.3 3.2-0.3z"/>
						</g>
					</g>
				</g>
			</g>
			<g id="&lt;Group&gt;">
				<g id="&lt;Group&gt;">
					<g id="&lt;Group&gt;">
						<g id="&lt;Group&gt;">
							<path id="&lt;Path&gt;" class="s2" d="m879.6 388c0 0.1-1.1 0.3-3.1 0.6-2 0.4-5 0.9-8.6 1.4-7.3 1-17.4 2.1-28.7 2.5-11.3 0.4-21.5-0.2-28.8-1.2-3.6-0.5-6.6-0.9-8.6-1.4-2-0.4-3.1-0.6-3.1-0.7 0-0.1 1.1 0.1 3.2 0.3 2 0.4 4.9 0.7 8.6 1.1 7.3 0.8 17.5 1.3 28.7 0.9 11.2-0.4 21.3-1.4 28.6-2.2 3.5-0.4 6.4-0.8 8.6-1 2.1-0.3 3.2-0.4 3.2-0.3z"/>
						</g>
					</g>
				</g>
			</g>
		</g>
	</g>
</svg>